<svg width="512" height="512" viewBox="0 0 512 512" fill="none" xmlns="http://www.w3.org/2000/svg">
<rect x="0.5" y="0.5" width="511" height="511" rx="68.5" fill="#FF0101"/>
<rect x="0.5" y="0.5" width="511" height="511" rx="68.5" stroke="black"/>
<path d="M300.4 272.5H339.88V444.28H300.4V272.5ZM197.92 263.68C216.12 263.12 237.12 262.56 260.92 262C285 261.44 310.2 260.74 336.52 259.9C362.84 259.06 389.16 258.08 415.48 256.96L414.22 290.14C389.02 291.82 363.82 293.36 338.62 294.76C313.42 295.88 289.06 297 265.54 298.12C242.3 298.96 221.02 299.8 201.7 300.64L197.92 263.68ZM406.24 60.82L430.18 92.74C416.46 96.38 401.34 99.6 384.82 102.4C368.3 104.92 351.08 107.16 333.16 109.12C315.24 110.8 297.18 112.2 278.98 113.32C261.06 114.44 243.84 115.28 227.32 115.84C226.76 111.36 225.36 106.04 223.12 99.88C221.16 93.44 219.2 87.98 217.24 83.5C233.76 82.66 250.7 81.54 268.06 80.14C285.42 78.74 302.5 77.2 319.3 75.52C336.1 73.56 351.92 71.32 366.76 68.8C381.6 66.28 394.76 63.62 406.24 60.82ZM372.22 126.34L407.08 146.92C393.64 162.6 378.66 178.84 362.14 195.64C345.9 212.44 329.52 228.68 313 244.36C296.76 259.76 281.36 273.34 266.8 285.1L239.5 266.2C250.42 257.24 261.76 247.16 273.52 235.96C285.56 224.48 297.46 212.44 309.22 199.84C321.26 187.24 332.6 174.64 343.24 162.04C354.16 149.44 363.82 137.54 372.22 126.34ZM299.98 86.86L338.2 104.08C327.56 117.8 316.22 131.94 304.18 146.5C292.42 161.06 281.36 173.38 271 183.46L241.6 167.92C248.32 160.92 255.18 152.66 262.18 143.14C269.46 133.62 276.46 123.96 283.18 114.16C289.9 104.08 295.5 94.98 299.98 86.86ZM361.72 331.3L394.48 317.02C401.76 326.26 408.9 336.34 415.9 347.26C422.9 358.18 429.2 368.96 434.8 379.6C440.4 390.24 444.6 399.76 447.4 408.16L412.12 424.54C409.32 416.14 405.26 406.62 399.94 395.98C394.62 385.06 388.6 374 381.88 362.8C375.44 351.6 368.72 341.1 361.72 331.3ZM358.78 227.56L388.18 210.76C396.58 219.44 404.84 229.1 412.96 239.74C421.36 250.38 429.06 260.74 436.06 270.82C443.06 280.9 448.38 290.14 452.02 298.54L420.52 317.86C416.88 309.46 411.7 299.94 404.98 289.3C398.54 278.66 391.26 268.02 383.14 257.38C375.02 246.74 366.9 236.8 358.78 227.56ZM211.78 169.6L236.14 144.82C245.94 151.54 255.88 158.96 265.96 167.08C276.32 175.2 285.98 183.46 294.94 191.86C303.9 199.98 311.04 207.54 316.36 214.54L290.32 242.26C285 235.26 277.86 227.56 268.9 219.16C260.22 210.48 250.84 201.8 240.76 193.12C230.96 184.44 221.3 176.6 211.78 169.6ZM236.14 320.38L273.52 330.46C266.24 348.1 257.14 365.88 246.22 383.8C235.58 401.44 224.94 416.42 214.3 428.74C211.78 426.5 208.42 423.98 204.22 421.18C200.3 418.66 196.24 416.14 192.04 413.62C188.12 411.1 184.62 409.14 181.54 407.74C192.46 396.54 202.68 383.1 212.2 367.42C222 351.74 229.98 336.06 236.14 320.38ZM51.76 245.62C65.48 243.38 81.02 240.72 98.38 237.64C116.02 234.28 134.5 230.78 153.82 227.14C173.42 223.22 193.02 219.44 212.62 215.8L215.14 251.92C187.98 257.24 160.68 262.7 133.24 268.3C106.08 273.9 81.72 278.94 60.16 283.42L51.76 245.62ZM65.2 78.88H187.84V116.26H65.2V78.88ZM115.6 166.66H153.82V398.5C153.82 408.58 152.7 416.56 150.46 422.44C148.22 428.6 143.74 433.36 137.02 436.72C130.86 440.08 122.88 442.18 113.08 443.02C103.56 443.86 92.08 444.28 78.64 444.28C78.08 438.68 76.54 431.96 74.02 424.12C71.78 416.56 69.26 409.98 66.46 404.38C75.7 404.66 84.24 404.8 92.08 404.8C100.2 404.8 105.66 404.8 108.46 404.8C111.54 404.8 113.5 404.38 114.34 403.54C115.18 402.7 115.6 400.88 115.6 398.08V166.66ZM180.28 78.88H189.94L197.92 76.36L225.22 95.26C218.78 107.3 211.22 119.62 202.54 132.22C193.86 144.54 184.76 156.44 175.24 167.92C166 179.12 156.76 189.06 147.52 197.74C145.84 195.22 143.46 192.42 140.38 189.34C137.3 185.98 134.22 182.76 131.14 179.68C128.06 176.6 125.12 174.08 122.32 172.12C129.88 164.84 137.3 156.16 144.58 146.08C152.14 136 159 125.78 165.16 115.42C171.6 105.06 176.64 95.68 180.28 87.28V78.88Z" fill="#FFFEFE"/>
</svg>
