<svg width="512" height="512" viewBox="0 0 512 512" fill="none" xmlns="http://www.w3.org/2000/svg">
<rect width="512" height="512" rx="69" fill="#FE0B0B"/>
<path d="M250.23 466.738C212.796 466.738 180.134 458.128 152.245 440.908C124.543 423.688 103.111 399.449 87.9502 368.191C72.7891 336.746 65.2085 299.779 65.2085 257.29V257.009C65.2085 214.521 72.7891 177.647 87.9502 146.389C103.111 115.131 124.543 90.9855 152.245 73.9526C179.946 56.7326 212.608 48.1226 250.23 48.1226C278.307 48.1226 303.856 53.457 326.878 64.126C349.901 74.7949 369.086 89.6753 384.435 108.767C399.97 127.859 410.265 150.226 415.318 175.869L415.88 178.677H364.781L362.816 172.5C357.575 156.029 349.714 142.084 339.232 130.667C328.937 119.062 316.303 110.171 301.329 103.994C286.355 97.8174 269.322 94.729 250.23 94.729C223.277 94.729 199.787 101.467 179.759 114.944C159.919 128.233 144.477 147.044 133.434 171.377C122.577 195.522 117.149 224.067 117.149 257.009V257.29C117.149 290.046 122.577 318.683 133.434 343.203C144.477 367.536 160.012 386.44 180.04 399.917C200.068 413.394 223.465 420.132 250.23 420.132C269.135 420.132 285.981 417.043 300.768 410.867C315.742 404.69 328.563 395.612 339.232 383.633C349.901 371.466 358.137 356.493 363.939 338.711L364.781 336.184H415.88L415.318 338.992C410.265 364.822 400.064 387.376 384.715 406.655C369.367 425.747 350.182 440.534 327.159 451.016C304.137 461.497 278.494 466.738 250.23 466.738Z" fill="black"/>
<path d="M163.643 335L227.729 158.853H249.946V188.027H242.256L192.451 335H163.643ZM194.771 287.393L202.705 265.42H282.295L290.229 287.393H194.771ZM292.549 335L242.866 188.027V158.853H257.393L321.357 335H292.549Z" fill="#FFFEFE"/>
</svg>
