<svg width="512" height="512" viewBox="0 0 512 512" fill="none" xmlns="http://www.w3.org/2000/svg">
<rect width="512" height="512" fill="white"/>
<rect x="50.5" y="43.5" width="411" height="424" rx="79.5" fill="#F40909"/>
<rect x="50.5" y="43.5" width="411" height="424" rx="79.5" stroke="black"/>
<path d="M193.036 228L245.844 82.8545H264.15V106.895H257.813L216.774 228H193.036ZM218.686 188.771L225.224 170.666H290.806L297.344 188.771H218.686ZM299.255 228L258.316 106.895V82.8545H270.286L322.993 228H299.255ZM259.222 432.414C245.542 432.414 233.639 429.363 223.514 423.261C213.455 417.159 205.676 408.508 200.178 397.31C194.679 386.044 191.93 372.733 191.93 357.377V357.276C191.93 341.92 194.679 328.643 200.178 317.444C205.676 306.246 213.455 297.629 223.514 291.594C233.572 285.492 245.475 282.44 259.222 282.44C269.884 282.44 279.507 284.486 288.09 288.576C296.673 292.667 303.748 298.333 309.313 305.575C314.879 312.817 318.4 321.233 319.875 330.822L319.976 331.828H297.545L296.941 329.816C295.399 324.117 292.884 319.221 289.397 315.131C285.978 311.04 281.719 307.922 276.623 305.776C271.594 303.563 265.793 302.457 259.222 302.457C250.236 302.457 242.424 304.703 235.785 309.196C229.214 313.689 224.117 320.026 220.496 328.207C216.875 336.388 215.064 346.078 215.064 357.276V357.377C215.064 368.508 216.875 378.232 220.496 386.547C224.117 394.795 229.247 401.165 235.886 405.658C242.524 410.151 250.303 412.397 259.222 412.397C265.659 412.397 271.393 411.325 276.422 409.179C281.518 406.966 285.843 403.747 289.397 399.522C292.951 395.298 295.6 390.134 297.344 384.032L297.646 383.026H320.076L319.875 384.032C318.4 393.688 314.879 402.171 309.313 409.48C303.815 416.723 296.774 422.355 288.19 426.379C279.607 430.402 269.951 432.414 259.222 432.414Z" fill="#FFFEFE"/>
</svg>
