<svg width="512" height="512" viewBox="0 0 512 512" fill="none" xmlns="http://www.w3.org/2000/svg">
<g clip-path="url(#clip0_18_78)">
<rect width="512" height="512" rx="69" fill="#FE0B0B"/>
<mask id="path-2-outside-1_18_78" maskUnits="userSpaceOnUse" x="34" y="29" width="440" height="439" fill="black">
<rect fill="white" x="34" y="29" width="440" height="439"/>
<path d="M76.38 85.885H177.64V119.5H76.38V85.885ZM119.125 191.71H152.74V406.265C152.74 414.288 151.772 420.652 149.835 425.355C147.898 430.058 144.44 433.793 139.46 436.56C133.927 439.05 127.287 440.572 119.54 441.125C112.07 441.955 102.802 442.37 91.735 442.37C91.1817 437.943 89.66 432.687 87.17 426.6C84.9567 420.79 82.7433 415.672 80.53 411.245C87.7233 411.522 94.3633 411.66 100.45 411.66C106.813 411.66 111.102 411.66 113.315 411.66C117.188 411.383 119.125 409.447 119.125 405.85V191.71ZM61.855 281.35C73.1983 277.477 86.2017 272.912 100.865 267.655C115.805 262.122 131.575 256.173 148.175 249.81C164.775 243.447 181.375 236.945 197.975 230.305L205.445 262.675C181.928 272.358 158.273 282.18 134.48 292.14C110.963 301.823 89.5217 310.677 70.155 318.7L61.855 281.35ZM169.755 85.885H178.47L185.94 83.81L210.01 100.825C203.647 112.998 196.592 126.002 188.845 139.835C181.375 153.392 173.49 166.395 165.19 178.845C156.89 191.295 148.728 202.223 140.705 211.63C138.215 208.587 134.757 205.128 130.33 201.255C125.903 197.382 122.168 194.2 119.125 191.71C125.488 183.133 131.852 173.035 138.215 161.415C144.855 149.795 150.942 138.037 156.475 126.14C162.008 114.243 166.435 103.592 169.755 94.185V85.885ZM361.485 225.74L389.29 212.045C395.93 221.175 402.57 231.135 409.21 241.925C416.127 252.438 422.49 262.952 428.3 273.465C434.387 283.702 438.952 292.693 441.995 300.44L412.115 317.04C409.072 309.017 404.783 299.748 399.25 289.235C393.717 278.722 387.63 267.932 380.99 256.865C374.35 245.798 367.848 235.423 361.485 225.74ZM355.26 329.905L385.555 316.21C392.748 325.617 400.08 335.853 407.55 346.92C415.02 357.987 421.937 368.915 428.3 379.705C434.663 390.218 439.782 399.625 443.655 407.925L412.115 424.525C408.242 416.225 403.123 406.68 396.76 395.89C390.673 384.823 384.033 373.618 376.84 362.275C369.647 350.655 362.453 339.865 355.26 329.905ZM245.285 322.435L280.145 331.98C272.122 349.687 262.438 367.255 251.095 384.685C240.028 401.838 229.1 416.363 218.31 428.26C215.82 426.6 212.5 424.663 208.35 422.45C204.477 420.513 200.465 418.577 196.315 416.64C192.165 414.98 188.43 413.458 185.11 412.075C197.283 401.008 208.627 387.452 219.14 371.405C229.653 355.082 238.368 338.758 245.285 322.435ZM223.705 230.305C223.152 227.815 222.183 224.633 220.8 220.76C219.693 216.61 218.448 212.322 217.065 207.895C215.682 203.468 214.298 199.872 212.915 197.105C217.065 196.275 221.215 194.753 225.365 192.54C229.515 190.327 234.08 187.56 239.06 184.24C242.657 181.75 248.328 177.462 256.075 171.375C264.098 165.012 272.675 157.542 281.805 148.965C291.212 140.112 299.927 131.12 307.95 121.99L340.735 138.59C326.348 153.253 310.855 167.087 294.255 180.09C277.655 193.093 261.47 204.022 245.7 212.875V213.705C245.7 213.705 244.593 214.258 242.38 215.365C240.167 216.472 237.538 217.855 234.495 219.515C231.728 221.175 229.238 222.973 227.025 224.91C224.812 226.847 223.705 228.645 223.705 230.305ZM223.705 230.305L222.875 204.575L240.72 193.785L347.375 186.315C346.545 190.742 345.715 195.86 344.885 201.67C344.332 207.203 344.055 211.768 344.055 215.365C319.708 217.578 300.065 219.515 285.125 221.175C270.185 222.558 258.703 223.803 250.68 224.91C242.657 225.74 236.708 226.708 232.835 227.815C228.962 228.645 225.918 229.475 223.705 230.305ZM220.8 313.305C220.247 310.815 219.278 307.495 217.895 303.345C216.788 299.195 215.405 294.907 213.745 290.48C212.085 286.053 210.702 282.18 209.595 278.86C215.405 278.03 221.492 275.955 227.855 272.635C234.218 269.038 241.688 264.335 250.265 258.525C254.968 255.482 261.747 250.64 270.6 244C279.73 237.36 289.967 229.337 301.31 219.93C312.93 210.523 324.688 200.287 336.585 189.22C348.482 178.153 359.825 166.81 370.615 155.19L399.25 177.6C375.733 200.84 350.695 222.697 324.135 243.17C297.575 263.367 271.153 281.073 244.87 296.29V297.12C244.87 297.12 243.625 297.673 241.135 298.78C238.922 299.61 236.155 300.855 232.835 302.515C229.515 304.175 226.61 305.973 224.12 307.91C221.907 309.847 220.8 311.645 220.8 313.305ZM220.8 313.305L219.97 286.745L239.89 275.125L414.19 260.6C413.083 265.58 412.253 270.975 411.7 276.785C411.147 282.318 410.87 286.883 410.87 290.48C379.053 293.523 352.355 296.152 330.775 298.365C309.472 300.302 292.042 302.1 278.485 303.76C265.205 305.143 254.692 306.388 246.945 307.495C239.475 308.602 233.803 309.57 229.93 310.4C226.333 311.23 223.29 312.198 220.8 313.305ZM348.62 59.74L377.255 85.055C363.422 94.4617 347.513 103.315 329.53 111.615C311.823 119.638 293.287 126.97 273.92 133.61C254.553 139.973 235.463 145.783 216.65 151.04C215.82 147.167 214.16 142.602 211.67 137.345C209.18 131.812 206.828 127.108 204.615 123.235C222.322 118.255 240.167 112.445 258.15 105.805C276.133 98.8883 293.01 91.5567 308.78 83.81C324.55 76.0633 337.83 68.04 348.62 59.74ZM297.99 286.745H335.34V407.095C335.34 415.672 334.372 422.45 332.435 427.43C330.498 432.41 326.487 436.145 320.4 438.635C314.59 441.402 307.535 443.062 299.235 443.615C290.935 444.168 280.975 444.445 269.355 444.445C268.802 439.465 267.418 433.932 265.205 427.845C263.268 421.758 261.332 416.225 259.395 411.245C266.588 411.522 273.367 411.66 279.73 411.66C286.093 411.937 290.382 411.937 292.595 411.66C294.808 411.383 296.192 410.83 296.745 410C297.575 409.447 297.99 408.202 297.99 406.265V286.745Z"/>
</mask>
<path d="M76.38 85.885H177.64V119.5H76.38V85.885ZM119.125 191.71H152.74V406.265C152.74 414.288 151.772 420.652 149.835 425.355C147.898 430.058 144.44 433.793 139.46 436.56C133.927 439.05 127.287 440.572 119.54 441.125C112.07 441.955 102.802 442.37 91.735 442.37C91.1817 437.943 89.66 432.687 87.17 426.6C84.9567 420.79 82.7433 415.672 80.53 411.245C87.7233 411.522 94.3633 411.66 100.45 411.66C106.813 411.66 111.102 411.66 113.315 411.66C117.188 411.383 119.125 409.447 119.125 405.85V191.71ZM61.855 281.35C73.1983 277.477 86.2017 272.912 100.865 267.655C115.805 262.122 131.575 256.173 148.175 249.81C164.775 243.447 181.375 236.945 197.975 230.305L205.445 262.675C181.928 272.358 158.273 282.18 134.48 292.14C110.963 301.823 89.5217 310.677 70.155 318.7L61.855 281.35ZM169.755 85.885H178.47L185.94 83.81L210.01 100.825C203.647 112.998 196.592 126.002 188.845 139.835C181.375 153.392 173.49 166.395 165.19 178.845C156.89 191.295 148.728 202.223 140.705 211.63C138.215 208.587 134.757 205.128 130.33 201.255C125.903 197.382 122.168 194.2 119.125 191.71C125.488 183.133 131.852 173.035 138.215 161.415C144.855 149.795 150.942 138.037 156.475 126.14C162.008 114.243 166.435 103.592 169.755 94.185V85.885ZM361.485 225.74L389.29 212.045C395.93 221.175 402.57 231.135 409.21 241.925C416.127 252.438 422.49 262.952 428.3 273.465C434.387 283.702 438.952 292.693 441.995 300.44L412.115 317.04C409.072 309.017 404.783 299.748 399.25 289.235C393.717 278.722 387.63 267.932 380.99 256.865C374.35 245.798 367.848 235.423 361.485 225.74ZM355.26 329.905L385.555 316.21C392.748 325.617 400.08 335.853 407.55 346.92C415.02 357.987 421.937 368.915 428.3 379.705C434.663 390.218 439.782 399.625 443.655 407.925L412.115 424.525C408.242 416.225 403.123 406.68 396.76 395.89C390.673 384.823 384.033 373.618 376.84 362.275C369.647 350.655 362.453 339.865 355.26 329.905ZM245.285 322.435L280.145 331.98C272.122 349.687 262.438 367.255 251.095 384.685C240.028 401.838 229.1 416.363 218.31 428.26C215.82 426.6 212.5 424.663 208.35 422.45C204.477 420.513 200.465 418.577 196.315 416.64C192.165 414.98 188.43 413.458 185.11 412.075C197.283 401.008 208.627 387.452 219.14 371.405C229.653 355.082 238.368 338.758 245.285 322.435ZM223.705 230.305C223.152 227.815 222.183 224.633 220.8 220.76C219.693 216.61 218.448 212.322 217.065 207.895C215.682 203.468 214.298 199.872 212.915 197.105C217.065 196.275 221.215 194.753 225.365 192.54C229.515 190.327 234.08 187.56 239.06 184.24C242.657 181.75 248.328 177.462 256.075 171.375C264.098 165.012 272.675 157.542 281.805 148.965C291.212 140.112 299.927 131.12 307.95 121.99L340.735 138.59C326.348 153.253 310.855 167.087 294.255 180.09C277.655 193.093 261.47 204.022 245.7 212.875V213.705C245.7 213.705 244.593 214.258 242.38 215.365C240.167 216.472 237.538 217.855 234.495 219.515C231.728 221.175 229.238 222.973 227.025 224.91C224.812 226.847 223.705 228.645 223.705 230.305ZM223.705 230.305L222.875 204.575L240.72 193.785L347.375 186.315C346.545 190.742 345.715 195.86 344.885 201.67C344.332 207.203 344.055 211.768 344.055 215.365C319.708 217.578 300.065 219.515 285.125 221.175C270.185 222.558 258.703 223.803 250.68 224.91C242.657 225.74 236.708 226.708 232.835 227.815C228.962 228.645 225.918 229.475 223.705 230.305ZM220.8 313.305C220.247 310.815 219.278 307.495 217.895 303.345C216.788 299.195 215.405 294.907 213.745 290.48C212.085 286.053 210.702 282.18 209.595 278.86C215.405 278.03 221.492 275.955 227.855 272.635C234.218 269.038 241.688 264.335 250.265 258.525C254.968 255.482 261.747 250.64 270.6 244C279.73 237.36 289.967 229.337 301.31 219.93C312.93 210.523 324.688 200.287 336.585 189.22C348.482 178.153 359.825 166.81 370.615 155.19L399.25 177.6C375.733 200.84 350.695 222.697 324.135 243.17C297.575 263.367 271.153 281.073 244.87 296.29V297.12C244.87 297.12 243.625 297.673 241.135 298.78C238.922 299.61 236.155 300.855 232.835 302.515C229.515 304.175 226.61 305.973 224.12 307.91C221.907 309.847 220.8 311.645 220.8 313.305ZM220.8 313.305L219.97 286.745L239.89 275.125L414.19 260.6C413.083 265.58 412.253 270.975 411.7 276.785C411.147 282.318 410.87 286.883 410.87 290.48C379.053 293.523 352.355 296.152 330.775 298.365C309.472 300.302 292.042 302.1 278.485 303.76C265.205 305.143 254.692 306.388 246.945 307.495C239.475 308.602 233.803 309.57 229.93 310.4C226.333 311.23 223.29 312.198 220.8 313.305ZM348.62 59.74L377.255 85.055C363.422 94.4617 347.513 103.315 329.53 111.615C311.823 119.638 293.287 126.97 273.92 133.61C254.553 139.973 235.463 145.783 216.65 151.04C215.82 147.167 214.16 142.602 211.67 137.345C209.18 131.812 206.828 127.108 204.615 123.235C222.322 118.255 240.167 112.445 258.15 105.805C276.133 98.8883 293.01 91.5567 308.78 83.81C324.55 76.0633 337.83 68.04 348.62 59.74ZM297.99 286.745H335.34V407.095C335.34 415.672 334.372 422.45 332.435 427.43C330.498 432.41 326.487 436.145 320.4 438.635C314.59 441.402 307.535 443.062 299.235 443.615C290.935 444.168 280.975 444.445 269.355 444.445C268.802 439.465 267.418 433.932 265.205 427.845C263.268 421.758 261.332 416.225 259.395 411.245C266.588 411.522 273.367 411.66 279.73 411.66C286.093 411.937 290.382 411.937 292.595 411.66C294.808 411.383 296.192 410.83 296.745 410C297.575 409.447 297.99 408.202 297.99 406.265V286.745Z" fill="#FFD700"/>
<path d="M76.38 85.885V62.885H53.38V85.885H76.38ZM177.64 85.885H200.64V62.885H177.64V85.885ZM177.64 119.5V142.5H200.64V119.5H177.64ZM76.38 119.5H53.38V142.5H76.38V119.5ZM119.125 191.71V168.71H96.125V191.71H119.125ZM152.74 191.71H175.74V168.71H152.74V191.71ZM149.835 425.355L128.567 416.598V416.598L149.835 425.355ZM139.46 436.56L148.898 457.534L149.782 457.136L150.63 456.666L139.46 436.56ZM119.54 441.125L117.901 418.183L117.45 418.216L117 418.266L119.54 441.125ZM91.735 442.37L68.9126 445.223L71.431 465.37H91.735V442.37ZM87.17 426.6L65.6768 434.788L65.7764 435.049L65.8824 435.309L87.17 426.6ZM80.53 411.245L81.414 388.262L42.5768 386.768L59.9582 421.531L80.53 411.245ZM113.315 411.66V434.66H114.135L114.954 434.602L113.315 411.66ZM61.855 281.35L54.4227 259.584L34.9357 266.238L39.4027 286.339L61.855 281.35ZM100.865 267.655L108.627 289.306L108.74 289.265L108.853 289.223L100.865 267.655ZM148.175 249.81L139.942 228.334L148.175 249.81ZM197.975 230.305L220.386 225.133L214.351 198.983L189.433 208.95L197.975 230.305ZM205.445 262.675L214.202 283.943L232.243 276.514L227.856 257.503L205.445 262.675ZM134.48 292.14L143.237 313.408L143.299 313.382L143.361 313.356L134.48 292.14ZM70.155 318.7L47.7027 323.689L53.6462 350.435L78.958 339.949L70.155 318.7ZM169.755 85.885V62.885H146.755V85.885H169.755ZM178.47 85.885V108.885H181.605L184.626 108.046L178.47 85.885ZM185.94 83.81L199.216 65.0287L190.302 58.7274L179.784 61.6491L185.94 83.81ZM210.01 100.825L230.393 111.48L239.711 93.6542L223.286 82.0437L210.01 100.825ZM188.845 139.835L168.777 128.597L168.739 128.666L168.701 128.735L188.845 139.835ZM140.705 211.63L122.904 226.194L140.338 247.503L158.204 226.556L140.705 211.63ZM130.33 201.255L115.184 218.564L130.33 201.255ZM119.125 191.71L100.654 178.006L87.5841 195.621L104.561 209.511L119.125 191.71ZM138.215 161.415L118.245 150.004L118.142 150.185L118.042 150.368L138.215 161.415ZM156.475 126.14L177.33 135.84V135.84L156.475 126.14ZM169.755 94.185L191.444 101.84L192.755 98.1247V94.185H169.755ZM361.485 225.74L351.322 205.107L327.965 216.612L342.264 238.371L361.485 225.74ZM389.29 212.045L407.891 198.517L396.5 182.855L379.127 191.412L389.29 212.045ZM409.21 241.925L389.622 253.979L389.804 254.276L389.995 254.566L409.21 241.925ZM428.3 273.465L408.169 284.59L408.345 284.908L408.531 285.22L428.3 273.465ZM441.995 300.44L453.165 320.546L470.764 310.768L463.402 292.03L441.995 300.44ZM412.115 317.04L390.61 325.197L400.04 350.059L423.285 337.146L412.115 317.04ZM399.25 289.235L378.897 299.947L378.897 299.947L399.25 289.235ZM355.26 329.905L345.786 308.947L320.129 320.545L336.614 343.371L355.26 329.905ZM385.555 316.21L403.825 302.239L392.728 287.727L376.081 295.252L385.555 316.21ZM407.55 346.92L426.614 334.052V334.052L407.55 346.92ZM428.3 379.705L408.489 391.389L408.555 391.502L408.624 391.614L428.3 379.705ZM443.655 407.925L454.367 428.278L473.769 418.067L464.497 398.199L443.655 407.925ZM412.115 424.525L391.273 434.251L401.476 456.116L422.827 444.878L412.115 424.525ZM396.76 395.89L376.607 406.974L376.773 407.276L376.949 407.574L396.76 395.89ZM376.84 362.275L357.284 374.381L357.35 374.487L357.416 374.592L376.84 362.275ZM245.285 322.435L251.359 300.252L231.956 294.939L224.108 313.462L245.285 322.435ZM280.145 331.98L301.095 341.473L312.222 316.916L286.219 309.797L280.145 331.98ZM251.095 384.685L231.818 372.14L231.793 372.178L231.768 372.216L251.095 384.685ZM218.31 428.26L205.552 447.397L222.037 458.387L235.347 443.712L218.31 428.26ZM208.35 422.45L219.174 402.156L218.907 402.013L218.636 401.878L208.35 422.45ZM196.315 416.64L206.041 395.798L205.456 395.525L204.857 395.285L196.315 416.64ZM185.11 412.075L169.639 395.056L142.87 419.392L176.264 433.306L185.11 412.075ZM219.14 371.405L238.379 384.01L238.428 383.934L238.476 383.859L219.14 371.405ZM223.705 230.305L201.253 235.294L246.705 230.305H223.705ZM220.8 220.76L198.577 226.686L198.821 227.603L199.14 228.496L220.8 220.76ZM212.915 197.105L208.404 174.552L178.876 180.457L192.343 207.391L212.915 197.105ZM225.365 192.54L214.542 172.246L214.541 172.246L225.365 192.54ZM239.06 184.24L251.818 203.377L251.986 203.265L252.152 203.15L239.06 184.24ZM256.075 171.375L270.285 189.46L270.326 189.428L270.367 189.395L256.075 171.375ZM281.805 148.965L297.553 165.729L297.56 165.721L297.568 165.714L281.805 148.965ZM307.95 121.99L318.34 101.47L302.439 93.4192L290.673 106.807L307.95 121.99ZM340.735 138.59L357.153 154.698L379.161 132.266L351.125 118.07L340.735 138.59ZM294.255 180.09L308.438 198.196L294.255 180.09ZM245.7 212.875L234.441 192.819L222.7 199.411V212.875H245.7ZM245.7 213.705L255.986 234.277L268.7 227.92V213.705H245.7ZM242.38 215.365L252.666 235.937L252.666 235.937L242.38 215.365ZM234.495 219.515L223.481 199.323L223.067 199.55L222.662 199.793L234.495 219.515ZM227.025 224.91L242.171 242.219L242.171 242.219L227.025 224.91ZM223.705 230.305L200.717 231.047L201.751 263.102L231.781 251.841L223.705 230.305ZM222.875 204.575L210.974 184.893L199.453 191.86L199.887 205.317L222.875 204.575ZM240.72 193.785L239.113 170.841L233.572 171.229L228.819 174.103L240.72 193.785ZM347.375 186.315L369.981 190.554L375.468 161.291L345.768 163.371L347.375 186.315ZM344.885 201.67L322.116 198.417L322.047 198.898L321.999 199.381L344.885 201.67ZM344.055 215.365L346.137 238.271L367.055 236.369V215.365H344.055ZM285.125 221.175L287.246 244.077L287.455 244.058L287.665 244.034L285.125 221.175ZM250.68 224.91L253.047 247.788L253.435 247.748L253.823 247.694L250.68 224.91ZM232.835 227.815L237.654 250.304L238.41 250.142L239.154 249.93L232.835 227.815ZM220.8 313.305L198.348 318.294L243.8 313.305H220.8ZM217.895 303.345L195.672 309.271L195.853 309.951L196.075 310.618L217.895 303.345ZM213.745 290.48L235.281 282.404V282.404L213.745 290.48ZM209.595 278.86L206.342 256.091L179.06 259.989L187.775 286.133L209.595 278.86ZM227.855 272.635L238.494 293.026L238.836 292.848L239.172 292.658L227.855 272.635ZM250.265 258.525L237.77 239.215L237.566 239.347L237.366 239.483L250.265 258.525ZM270.6 244L257.072 225.399L256.935 225.499L256.8 225.6L270.6 244ZM301.31 219.93L286.838 202.053L286.733 202.139L286.628 202.226L301.31 219.93ZM336.585 189.22L352.25 206.06L352.25 206.06L336.585 189.22ZM370.615 155.19L384.79 137.077L368.144 124.05L353.761 139.54L370.615 155.19ZM399.25 177.6L415.417 193.959L434.003 175.592L413.425 159.487L399.25 177.6ZM324.135 243.17L338.057 261.478L338.117 261.432L338.177 261.386L324.135 243.17ZM244.87 296.29L233.346 276.385L221.87 283.029V296.29H244.87ZM244.87 297.12L254.211 318.138L267.87 312.067V297.12H244.87ZM241.135 298.78L249.211 320.316L249.851 320.075L250.476 319.798L241.135 298.78ZM232.835 302.515L243.121 323.087L243.121 323.087L232.835 302.515ZM224.12 307.91L209.999 289.755L209.475 290.163L208.974 290.601L224.12 307.91ZM220.8 313.305L197.811 314.023L198.88 348.217L230.141 334.323L220.8 313.305ZM219.97 286.745L208.381 266.878L196.554 273.777L196.981 287.463L219.97 286.745ZM239.89 275.125L237.98 252.204L232.795 252.637L228.301 255.258L239.89 275.125ZM414.19 260.6L436.642 265.589L443.421 235.084L412.28 237.679L414.19 260.6ZM411.7 276.785L434.586 279.074L434.591 279.02L434.596 278.966L411.7 276.785ZM410.87 290.48L413.06 313.375L433.87 311.385V290.48H410.87ZM330.775 298.365L332.857 321.271L332.99 321.259L333.122 321.245L330.775 298.365ZM278.485 303.76L280.868 326.636L281.074 326.615L281.28 326.589L278.485 303.76ZM246.945 307.495L243.692 284.726L243.633 284.735L243.574 284.743L246.945 307.495ZM229.93 310.4L225.111 287.911L224.934 287.948L224.758 287.989L229.93 310.4ZM348.62 59.74L363.854 42.5083L349.637 29.94L334.597 41.5096L348.62 59.74ZM377.255 85.055L390.188 104.074L414.666 87.4293L392.489 67.8233L377.255 85.055ZM329.53 111.615L339.023 132.565L339.096 132.532L339.168 132.498L329.53 111.615ZM273.92 133.61L281.1 155.461L281.24 155.415L281.379 155.367L273.92 133.61ZM216.65 151.04L194.161 155.859L199.285 179.773L222.839 173.192L216.65 151.04ZM211.67 137.345L190.696 146.783L190.788 146.988L190.884 147.191L211.67 137.345ZM204.615 123.235L198.388 101.094L170.03 109.07L184.645 134.646L204.615 123.235ZM258.15 105.805L266.117 127.381L266.262 127.328L266.407 127.272L258.15 105.805ZM297.99 286.745V263.745H274.99V286.745H297.99ZM335.34 286.745H358.34V263.745H335.34V286.745ZM332.435 427.43L310.999 419.094L310.999 419.094L332.435 427.43ZM320.4 438.635L311.691 417.347L311.094 417.592L310.512 417.869L320.4 438.635ZM299.235 443.615L297.705 420.666V420.666L299.235 443.615ZM269.355 444.445L246.496 446.985L248.769 467.445H269.355V444.445ZM265.205 427.845L243.288 434.819L243.43 435.265L243.59 435.705L265.205 427.845ZM259.395 411.245L260.279 388.262L225.255 386.915L237.959 419.581L259.395 411.245ZM279.73 411.66L280.729 388.682L280.23 388.66H279.73V411.66ZM292.595 411.66L295.448 434.482V434.482L292.595 411.66ZM296.745 410L283.987 390.863L280.16 393.414L277.608 397.242L296.745 410ZM76.38 85.885V108.885H177.64V85.885V62.885H76.38V85.885ZM177.64 85.885H154.64V119.5H177.64H200.64V85.885H177.64ZM177.64 119.5V96.5H76.38V119.5V142.5H177.64V119.5ZM76.38 119.5H99.38V85.885H76.38H53.38V119.5H76.38ZM119.125 191.71V214.71H152.74V191.71V168.71H119.125V191.71ZM152.74 191.71H129.74V406.265H152.74H175.74V191.71H152.74ZM152.74 406.265H129.74C129.74 412.823 128.892 415.809 128.567 416.598L149.835 425.355L171.103 434.112C174.651 425.494 175.74 415.754 175.74 406.265H152.74ZM149.835 425.355L128.567 416.598C128.596 416.529 128.645 416.427 128.719 416.312C128.793 416.196 128.864 416.11 128.912 416.057C128.959 416.007 128.957 416.019 128.872 416.084C128.785 416.151 128.602 416.281 128.29 416.454L139.46 436.56L150.63 456.666C159.586 451.69 166.944 444.211 171.103 434.112L149.835 425.355ZM139.46 436.56L130.022 415.586C127.534 416.705 123.672 417.771 117.901 418.183L119.54 441.125L121.179 464.067C130.902 463.372 140.32 461.395 148.898 457.534L139.46 436.56ZM119.54 441.125L117 418.266C110.666 418.97 102.309 419.37 91.735 419.37V442.37V465.37C103.294 465.37 113.474 464.94 122.08 463.984L119.54 441.125ZM91.735 442.37L114.557 439.517C113.664 432.374 111.389 425.056 108.458 417.891L87.17 426.6L65.8824 435.309C67.9315 440.317 68.6989 443.513 68.9126 445.223L91.735 442.37ZM87.17 426.6L108.663 418.412C106.243 412.06 103.73 406.216 101.102 400.959L80.53 411.245L59.9582 421.531C61.7563 425.127 63.6701 429.52 65.6768 434.788L87.17 426.6ZM80.53 411.245L79.646 434.228C87.0825 434.514 94.0213 434.66 100.45 434.66V411.66V388.66C94.7054 388.66 88.3642 388.529 81.414 388.262L80.53 411.245ZM100.45 411.66V434.66C100.462 434.66 100.475 434.66 100.487 434.66C100.5 434.66 100.512 434.66 100.524 434.66C100.537 434.66 100.549 434.66 100.562 434.66C100.574 434.66 100.586 434.66 100.599 434.66C100.611 434.66 100.623 434.66 100.636 434.66C100.648 434.66 100.661 434.66 100.673 434.66C100.685 434.66 100.698 434.66 100.71 434.66C100.722 434.66 100.734 434.66 100.747 434.66C100.759 434.66 100.771 434.66 100.784 434.66C100.796 434.66 100.808 434.66 100.82 434.66C100.833 434.66 100.845 434.66 100.857 434.66C100.87 434.66 100.882 434.66 100.894 434.66C100.906 434.66 100.918 434.66 100.931 434.66C100.943 434.66 100.955 434.66 100.967 434.66C100.98 434.66 100.992 434.66 101.004 434.66C101.016 434.66 101.028 434.66 101.04 434.66C101.053 434.66 101.065 434.66 101.077 434.66C101.089 434.66 101.101 434.66 101.113 434.66C101.126 434.66 101.138 434.66 101.15 434.66C101.162 434.66 101.174 434.66 101.186 434.66C101.198 434.66 101.21 434.66 101.223 434.66C101.235 434.66 101.247 434.66 101.259 434.66C101.271 434.66 101.283 434.66 101.295 434.66C101.307 434.66 101.319 434.66 101.331 434.66C101.343 434.66 101.355 434.66 101.367 434.66C101.379 434.66 101.391 434.66 101.403 434.66C101.415 434.66 101.427 434.66 101.439 434.66C101.451 434.66 101.463 434.66 101.475 434.66C101.487 434.66 101.499 434.66 101.511 434.66C101.523 434.66 101.535 434.66 101.547 434.66C101.559 434.66 101.571 434.66 101.583 434.66C101.595 434.66 101.607 434.66 101.619 434.66C101.631 434.66 101.643 434.66 101.655 434.66C101.666 434.66 101.678 434.66 101.69 434.66C101.702 434.66 101.714 434.66 101.726 434.66C101.738 434.66 101.75 434.66 101.761 434.66C101.773 434.66 101.785 434.66 101.797 434.66C101.809 434.66 101.821 434.66 101.833 434.66C101.844 434.66 101.856 434.66 101.868 434.66C101.88 434.66 101.892 434.66 101.903 434.66C101.915 434.66 101.927 434.66 101.939 434.66C101.951 434.66 101.962 434.66 101.974 434.66C101.986 434.66 101.998 434.66 102.009 434.66C102.021 434.66 102.033 434.66 102.045 434.66C102.056 434.66 102.068 434.66 102.08 434.66C102.091 434.66 102.103 434.66 102.115 434.66C102.127 434.66 102.138 434.66 102.15 434.66C102.162 434.66 102.173 434.66 102.185 434.66C102.197 434.66 102.208 434.66 102.22 434.66C102.232 434.66 102.243 434.66 102.255 434.66C102.267 434.66 102.278 434.66 102.29 434.66C102.301 434.66 102.313 434.66 102.325 434.66C102.336 434.66 102.348 434.66 102.359 434.66C102.371 434.66 102.383 434.66 102.394 434.66C102.406 434.66 102.417 434.66 102.429 434.66C102.44 434.66 102.452 434.66 102.464 434.66C102.475 434.66 102.487 434.66 102.498 434.66C102.51 434.66 102.521 434.66 102.533 434.66C102.544 434.66 102.556 434.66 102.567 434.66C102.579 434.66 102.59 434.66 102.602 434.66C102.613 434.66 102.625 434.66 102.636 434.66C102.647 434.66 102.659 434.66 102.67 434.66C102.682 434.66 102.693 434.66 102.705 434.66C102.716 434.66 102.728 434.66 102.739 434.66C102.75 434.66 102.762 434.66 102.773 434.66C102.785 434.66 102.796 434.66 102.807 434.66C102.819 434.66 102.83 434.66 102.842 434.66C102.853 434.66 102.864 434.66 102.876 434.66C102.887 434.66 102.898 434.66 102.91 434.66C102.921 434.66 102.932 434.66 102.944 434.66C102.955 434.66 102.966 434.66 102.978 434.66C102.989 434.66 103 434.66 103.011 434.66C103.023 434.66 103.034 434.66 103.045 434.66C103.057 434.66 103.068 434.66 103.079 434.66C103.09 434.66 103.102 434.66 103.113 434.66C103.124 434.66 103.135 434.66 103.147 434.66C103.158 434.66 103.169 434.66 103.18 434.66C103.191 434.66 103.203 434.66 103.214 434.66C103.225 434.66 103.236 434.66 103.247 434.66C103.259 434.66 103.27 434.66 103.281 434.66C103.292 434.66 103.303 434.66 103.314 434.66C103.325 434.66 103.337 434.66 103.348 434.66C103.359 434.66 103.37 434.66 103.381 434.66C103.392 434.66 103.403 434.66 103.414 434.66C103.426 434.66 103.437 434.66 103.448 434.66C103.459 434.66 103.47 434.66 103.481 434.66C103.492 434.66 103.503 434.66 103.514 434.66C103.525 434.66 103.536 434.66 103.547 434.66C103.558 434.66 103.569 434.66 103.58 434.66C103.591 434.66 103.602 434.66 103.613 434.66C103.624 434.66 103.635 434.66 103.646 434.66C103.657 434.66 103.668 434.66 103.679 434.66C103.69 434.66 103.701 434.66 103.712 434.66C103.723 434.66 103.734 434.66 103.745 434.66C103.756 434.66 103.767 434.66 103.778 434.66C103.789 434.66 103.8 434.66 103.811 434.66C103.821 434.66 103.832 434.66 103.843 434.66C103.854 434.66 103.865 434.66 103.876 434.66C103.887 434.66 103.898 434.66 103.908 434.66C103.919 434.66 103.93 434.66 103.941 434.66C103.952 434.66 103.963 434.66 103.974 434.66C103.984 434.66 103.995 434.66 104.006 434.66C104.017 434.66 104.028 434.66 104.038 434.66C104.049 434.66 104.06 434.66 104.071 434.66C104.082 434.66 104.092 434.66 104.103 434.66C104.114 434.66 104.125 434.66 104.135 434.66C104.146 434.66 104.157 434.66 104.168 434.66C104.178 434.66 104.189 434.66 104.2 434.66C104.211 434.66 104.221 434.66 104.232 434.66C104.243 434.66 104.253 434.66 104.264 434.66C104.275 434.66 104.285 434.66 104.296 434.66C104.307 434.66 104.317 434.66 104.328 434.66C104.339 434.66 104.349 434.66 104.36 434.66C104.371 434.66 104.381 434.66 104.392 434.66C104.403 434.66 104.413 434.66 104.424 434.66C104.434 434.66 104.445 434.66 104.456 434.66C104.466 434.66 104.477 434.66 104.487 434.66C104.498 434.66 104.508 434.66 104.519 434.66C104.53 434.66 104.54 434.66 104.551 434.66C104.561 434.66 104.572 434.66 104.582 434.66C104.593 434.66 104.603 434.66 104.614 434.66C104.624 434.66 104.635 434.66 104.645 434.66C104.656 434.66 104.666 434.66 104.677 434.66C104.687 434.66 104.698 434.66 104.708 434.66C104.719 434.66 104.729 434.66 104.74 434.66C104.75 434.66 104.76 434.66 104.771 434.66C104.781 434.66 104.792 434.66 104.802 434.66C104.813 434.66 104.823 434.66 104.833 434.66C104.844 434.66 104.854 434.66 104.865 434.66C104.875 434.66 104.885 434.66 104.896 434.66C104.906 434.66 104.916 434.66 104.927 434.66C104.937 434.66 104.948 434.66 104.958 434.66C104.968 434.66 104.979 434.66 104.989 434.66C104.999 434.66 105.01 434.66 105.02 434.66C105.03 434.66 105.04 434.66 105.051 434.66C105.061 434.66 105.071 434.66 105.082 434.66C105.092 434.66 105.102 434.66 105.112 434.66C105.123 434.66 105.133 434.66 105.143 434.66C105.153 434.66 105.164 434.66 105.174 434.66C105.184 434.66 105.194 434.66 105.204 434.66C105.215 434.66 105.225 434.66 105.235 434.66C105.245 434.66 105.255 434.66 105.266 434.66C105.276 434.66 105.286 434.66 105.296 434.66C105.306 434.66 105.317 434.66 105.327 434.66C105.337 434.66 105.347 434.66 105.357 434.66C105.367 434.66 105.377 434.66 105.387 434.66C105.398 434.66 105.408 434.66 105.418 434.66C105.428 434.66 105.438 434.66 105.448 434.66C105.458 434.66 105.468 434.66 105.478 434.66C105.488 434.66 105.498 434.66 105.508 434.66C105.519 434.66 105.529 434.66 105.539 434.66C105.549 434.66 105.559 434.66 105.569 434.66C105.579 434.66 105.589 434.66 105.599 434.66C105.609 434.66 105.619 434.66 105.629 434.66C105.639 434.66 105.649 434.66 105.659 434.66C105.669 434.66 105.679 434.66 105.689 434.66C105.699 434.66 105.708 434.66 105.718 434.66C105.728 434.66 105.738 434.66 105.748 434.66C105.758 434.66 105.768 434.66 105.778 434.66C105.788 434.66 105.798 434.66 105.808 434.66C105.818 434.66 105.827 434.66 105.837 434.66C105.847 434.66 105.857 434.66 105.867 434.66C105.877 434.66 105.887 434.66 105.897 434.66C105.906 434.66 105.916 434.66 105.926 434.66C105.936 434.66 105.946 434.66 105.956 434.66C105.965 434.66 105.975 434.66 105.985 434.66C105.995 434.66 106.005 434.66 106.014 434.66C106.024 434.66 106.034 434.66 106.044 434.66C106.053 434.66 106.063 434.66 106.073 434.66C106.083 434.66 106.092 434.66 106.102 434.66C106.112 434.66 106.122 434.66 106.131 434.66C106.141 434.66 106.151 434.66 106.161 434.66C106.17 434.66 106.18 434.66 106.19 434.66C106.199 434.66 106.209 434.66 106.219 434.66C106.228 434.66 106.238 434.66 106.248 434.66C106.257 434.66 106.267 434.66 106.277 434.66C106.286 434.66 106.296 434.66 106.306 434.66C106.315 434.66 106.325 434.66 106.334 434.66C106.344 434.66 106.354 434.66 106.363 434.66C106.373 434.66 106.382 434.66 106.392 434.66C106.402 434.66 106.411 434.66 106.421 434.66C106.43 434.66 106.44 434.66 106.449 434.66C106.459 434.66 106.468 434.66 106.478 434.66C106.487 434.66 106.497 434.66 106.507 434.66C106.516 434.66 106.526 434.66 106.535 434.66C106.545 434.66 106.554 434.66 106.564 434.66C106.573 434.66 106.582 434.66 106.592 434.66C106.601 434.66 106.611 434.66 106.62 434.66C106.63 434.66 106.639 434.66 106.649 434.66C106.658 434.66 106.668 434.66 106.677 434.66C106.686 434.66 106.696 434.66 106.705 434.66C106.715 434.66 106.724 434.66 106.733 434.66C106.743 434.66 106.752 434.66 106.762 434.66C106.771 434.66 106.78 434.66 106.79 434.66C106.799 434.66 106.808 434.66 106.818 434.66C106.827 434.66 106.836 434.66 106.846 434.66C106.855 434.66 106.864 434.66 106.874 434.66C106.883 434.66 106.892 434.66 106.902 434.66C106.911 434.66 106.92 434.66 106.929 434.66C106.939 434.66 106.948 434.66 106.957 434.66C106.966 434.66 106.976 434.66 106.985 434.66C106.994 434.66 107.003 434.66 107.013 434.66C107.022 434.66 107.031 434.66 107.04 434.66C107.05 434.66 107.059 434.66 107.068 434.66C107.077 434.66 107.086 434.66 107.096 434.66C107.105 434.66 107.114 434.66 107.123 434.66C107.132 434.66 107.141 434.66 107.151 434.66C107.16 434.66 107.169 434.66 107.178 434.66C107.187 434.66 107.196 434.66 107.205 434.66C107.214 434.66 107.224 434.66 107.233 434.66C107.242 434.66 107.251 434.66 107.26 434.66C107.269 434.66 107.278 434.66 107.287 434.66C107.296 434.66 107.305 434.66 107.314 434.66C107.323 434.66 107.332 434.66 107.342 434.66C107.351 434.66 107.36 434.66 107.369 434.66C107.378 434.66 107.387 434.66 107.396 434.66C107.405 434.66 107.414 434.66 107.423 434.66C107.432 434.66 107.441 434.66 107.45 434.66C107.459 434.66 107.468 434.66 107.477 434.66C107.486 434.66 107.494 434.66 107.503 434.66C107.512 434.66 107.521 434.66 107.53 434.66C107.539 434.66 107.548 434.66 107.557 434.66C107.566 434.66 107.575 434.66 107.584 434.66C107.593 434.66 107.602 434.66 107.61 434.66C107.619 434.66 107.628 434.66 107.637 434.66C107.646 434.66 107.655 434.66 107.664 434.66C107.672 434.66 107.681 434.66 107.69 434.66C107.699 434.66 107.708 434.66 107.717 434.66C107.725 434.66 107.734 434.66 107.743 434.66C107.752 434.66 107.761 434.66 107.769 434.66C107.778 434.66 107.787 434.66 107.796 434.66C107.805 434.66 107.813 434.66 107.822 434.66C107.831 434.66 107.84 434.66 107.848 434.66C107.857 434.66 107.866 434.66 107.874 434.66C107.883 434.66 107.892 434.66 107.901 434.66C107.909 434.66 107.918 434.66 107.927 434.66C107.935 434.66 107.944 434.66 107.953 434.66C107.961 434.66 107.97 434.66 107.979 434.66C107.987 434.66 107.996 434.66 108.005 434.66C108.013 434.66 108.022 434.66 108.031 434.66C108.039 434.66 108.048 434.66 108.057 434.66C108.065 434.66 108.074 434.66 108.082 434.66C108.091 434.66 108.1 434.66 108.108 434.66C108.117 434.66 108.125 434.66 108.134 434.66C108.142 434.66 108.151 434.66 108.159 434.66C108.168 434.66 108.177 434.66 108.185 434.66C108.194 434.66 108.202 434.66 108.211 434.66C108.219 434.66 108.228 434.66 108.236 434.66C108.245 434.66 108.253 434.66 108.262 434.66C108.27 434.66 108.279 434.66 108.287 434.66C108.296 434.66 108.304 434.66 108.313 434.66C108.321 434.66 108.329 434.66 108.338 434.66C108.346 434.66 108.355 434.66 108.363 434.66C108.372 434.66 108.38 434.66 108.388 434.66C108.397 434.66 108.405 434.66 108.414 434.66C108.422 434.66 108.43 434.66 108.439 434.66C108.447 434.66 108.456 434.66 108.464 434.66C108.472 434.66 108.481 434.66 108.489 434.66C108.497 434.66 108.506 434.66 108.514 434.66C108.522 434.66 108.531 434.66 108.539 434.66C108.547 434.66 108.555 434.66 108.564 434.66C108.572 434.66 108.58 434.66 108.589 434.66C108.597 434.66 108.605 434.66 108.613 434.66C108.622 434.66 108.63 434.66 108.638 434.66C108.646 434.66 108.655 434.66 108.663 434.66C108.671 434.66 108.679 434.66 108.688 434.66C108.696 434.66 108.704 434.66 108.712 434.66C108.72 434.66 108.729 434.66 108.737 434.66C108.745 434.66 108.753 434.66 108.761 434.66C108.77 434.66 108.778 434.66 108.786 434.66C108.794 434.66 108.802 434.66 108.81 434.66C108.818 434.66 108.827 434.66 108.835 434.66C108.843 434.66 108.851 434.66 108.859 434.66C108.867 434.66 108.875 434.66 108.883 434.66C108.891 434.66 108.9 434.66 108.908 434.66C108.916 434.66 108.924 434.66 108.932 434.66C108.94 434.66 108.948 434.66 108.956 434.66C108.964 434.66 108.972 434.66 108.98 434.66C108.988 434.66 108.996 434.66 109.004 434.66C109.012 434.66 109.02 434.66 109.028 434.66C109.036 434.66 109.044 434.66 109.052 434.66C109.06 434.66 109.068 434.66 109.076 434.66C109.084 434.66 109.092 434.66 109.1 434.66C109.108 434.66 109.116 434.66 109.124 434.66C109.132 434.66 109.14 434.66 109.147 434.66C109.155 434.66 109.163 434.66 109.171 434.66C109.179 434.66 109.187 434.66 109.195 434.66C109.203 434.66 109.211 434.66 109.219 434.66C109.226 434.66 109.234 434.66 109.242 434.66C109.25 434.66 109.258 434.66 109.266 434.66C109.273 434.66 109.281 434.66 109.289 434.66C109.297 434.66 109.305 434.66 109.313 434.66C109.32 434.66 109.328 434.66 109.336 434.66C109.344 434.66 109.352 434.66 109.359 434.66C109.367 434.66 109.375 434.66 109.383 434.66C109.39 434.66 109.398 434.66 109.406 434.66C109.414 434.66 109.421 434.66 109.429 434.66C109.437 434.66 109.444 434.66 109.452 434.66C109.46 434.66 109.468 434.66 109.475 434.66C109.483 434.66 109.491 434.66 109.498 434.66C109.506 434.66 109.514 434.66 109.521 434.66C109.529 434.66 109.537 434.66 109.544 434.66C109.552 434.66 109.56 434.66 109.567 434.66C109.575 434.66 109.583 434.66 109.59 434.66C109.598 434.66 109.605 434.66 109.613 434.66C109.621 434.66 109.628 434.66 109.636 434.66C109.643 434.66 109.651 434.66 109.658 434.66C109.666 434.66 109.674 434.66 109.681 434.66C109.689 434.66 109.696 434.66 109.704 434.66C109.711 434.66 109.719 434.66 109.726 434.66C109.734 434.66 109.741 434.66 109.749 434.66C109.756 434.66 109.764 434.66 109.771 434.66C109.779 434.66 109.786 434.66 109.794 434.66C109.801 434.66 109.809 434.66 109.816 434.66C109.824 434.66 109.831 434.66 109.839 434.66C109.846 434.66 109.853 434.66 109.861 434.66C109.868 434.66 109.876 434.66 109.883 434.66C109.891 434.66 109.898 434.66 109.905 434.66C109.913 434.66 109.92 434.66 109.928 434.66C109.935 434.66 109.942 434.66 109.95 434.66C109.957 434.66 109.964 434.66 109.972 434.66C109.979 434.66 109.986 434.66 109.994 434.66C110.001 434.66 110.008 434.66 110.016 434.66C110.023 434.66 110.03 434.66 110.038 434.66C110.045 434.66 110.052 434.66 110.059 434.66C110.067 434.66 110.074 434.66 110.081 434.66C110.089 434.66 110.096 434.66 110.103 434.66C110.11 434.66 110.118 434.66 110.125 434.66C110.132 434.66 110.139 434.66 110.146 434.66C110.154 434.66 110.161 434.66 110.168 434.66C110.175 434.66 110.183 434.66 110.19 434.66C110.197 434.66 110.204 434.66 110.211 434.66C110.218 434.66 110.226 434.66 110.233 434.66C110.24 434.66 110.247 434.66 110.254 434.66C110.261 434.66 110.268 434.66 110.276 434.66C110.283 434.66 110.29 434.66 110.297 434.66C110.304 434.66 110.311 434.66 110.318 434.66C110.325 434.66 110.332 434.66 110.339 434.66C110.347 434.66 110.354 434.66 110.361 434.66C110.368 434.66 110.375 434.66 110.382 434.66C110.389 434.66 110.396 434.66 110.403 434.66C110.41 434.66 110.417 434.66 110.424 434.66C110.431 434.66 110.438 434.66 110.445 434.66C110.452 434.66 110.459 434.66 110.466 434.66C110.473 434.66 110.48 434.66 110.487 434.66C110.494 434.66 110.501 434.66 110.508 434.66C110.515 434.66 110.522 434.66 110.529 434.66C110.536 434.66 110.543 434.66 110.549 434.66C110.556 434.66 110.563 434.66 110.57 434.66C110.577 434.66 110.584 434.66 110.591 434.66C110.598 434.66 110.605 434.66 110.612 434.66C110.618 434.66 110.625 434.66 110.632 434.66C110.639 434.66 110.646 434.66 110.653 434.66C110.659 434.66 110.666 434.66 110.673 434.66C110.68 434.66 110.687 434.66 110.694 434.66C110.7 434.66 110.707 434.66 110.714 434.66C110.721 434.66 110.728 434.66 110.734 434.66C110.741 434.66 110.748 434.66 110.755 434.66C110.761 434.66 110.768 434.66 110.775 434.66C110.782 434.66 110.788 434.66 110.795 434.66C110.802 434.66 110.809 434.66 110.815 434.66C110.822 434.66 110.829 434.66 110.835 434.66C110.842 434.66 110.849 434.66 110.855 434.66C110.862 434.66 110.869 434.66 110.875 434.66C110.882 434.66 110.889 434.66 110.895 434.66C110.902 434.66 110.909 434.66 110.915 434.66C110.922 434.66 110.929 434.66 110.935 434.66C110.942 434.66 110.948 434.66 110.955 434.66C110.962 434.66 110.968 434.66 110.975 434.66C110.981 434.66 110.988 434.66 110.995 434.66C111.001 434.66 111.008 434.66 111.014 434.66C111.021 434.66 111.027 434.66 111.034 434.66C111.04 434.66 111.047 434.66 111.054 434.66C111.06 434.66 111.067 434.66 111.073 434.66C111.08 434.66 111.086 434.66 111.093 434.66C111.099 434.66 111.106 434.66 111.112 434.66C111.119 434.66 111.125 434.66 111.131 434.66C111.138 434.66 111.144 434.66 111.151 434.66C111.157 434.66 111.164 434.66 111.17 434.66C111.177 434.66 111.183 434.66 111.189 434.66C111.196 434.66 111.202 434.66 111.209 434.66C111.215 434.66 111.221 434.66 111.228 434.66C111.234 434.66 111.241 434.66 111.247 434.66C111.253 434.66 111.26 434.66 111.266 434.66C111.272 434.66 111.279 434.66 111.285 434.66C111.291 434.66 111.298 434.66 111.304 434.66C111.31 434.66 111.317 434.66 111.323 434.66C111.329 434.66 111.335 434.66 111.342 434.66C111.348 434.66 111.354 434.66 111.361 434.66C111.367 434.66 111.373 434.66 111.379 434.66C111.386 434.66 111.392 434.66 111.398 434.66C111.404 434.66 111.411 434.66 111.417 434.66C111.423 434.66 111.429 434.66 111.435 434.66C111.442 434.66 111.448 434.66 111.454 434.66C111.46 434.66 111.466 434.66 111.473 434.66C111.479 434.66 111.485 434.66 111.491 434.66C111.497 434.66 111.503 434.66 111.51 434.66C111.516 434.66 111.522 434.66 111.528 434.66C111.534 434.66 111.54 434.66 111.546 434.66C111.552 434.66 111.559 434.66 111.565 434.66C111.571 434.66 111.577 434.66 111.583 434.66C111.589 434.66 111.595 434.66 111.601 434.66C111.607 434.66 111.613 434.66 111.619 434.66C111.625 434.66 111.631 434.66 111.637 434.66C111.643 434.66 111.649 434.66 111.655 434.66C111.661 434.66 111.668 434.66 111.673 434.66C111.68 434.66 111.685 434.66 111.691 434.66C111.697 434.66 111.703 434.66 111.709 434.66C111.715 434.66 111.721 434.66 111.727 434.66C111.733 434.66 111.739 434.66 111.745 434.66C111.751 434.66 111.757 434.66 111.763 434.66C111.769 434.66 111.775 434.66 111.781 434.66C111.787 434.66 111.792 434.66 111.798 434.66C111.804 434.66 111.81 434.66 111.816 434.66C111.822 434.66 111.828 434.66 111.834 434.66C111.839 434.66 111.845 434.66 111.851 434.66C111.857 434.66 111.863 434.66 111.869 434.66C111.874 434.66 111.88 434.66 111.886 434.66C111.892 434.66 111.898 434.66 111.904 434.66C111.909 434.66 111.915 434.66 111.921 434.66C111.927 434.66 111.932 434.66 111.938 434.66C111.944 434.66 111.95 434.66 111.955 434.66C111.961 434.66 111.967 434.66 111.973 434.66C111.978 434.66 111.984 434.66 111.99 434.66C111.996 434.66 112.001 434.66 112.007 434.66C112.013 434.66 112.018 434.66 112.024 434.66C112.03 434.66 112.035 434.66 112.041 434.66C112.047 434.66 112.052 434.66 112.058 434.66C112.064 434.66 112.069 434.66 112.075 434.66C112.081 434.66 112.086 434.66 112.092 434.66C112.098 434.66 112.103 434.66 112.109 434.66C112.114 434.66 112.12 434.66 112.126 434.66C112.131 434.66 112.137 434.66 112.142 434.66C112.148 434.66 112.153 434.66 112.159 434.66C112.165 434.66 112.17 434.66 112.176 434.66C112.181 434.66 112.187 434.66 112.192 434.66C112.198 434.66 112.203 434.66 112.209 434.66C112.214 434.66 112.22 434.66 112.225 434.66C112.231 434.66 112.236 434.66 112.242 434.66C112.247 434.66 112.253 434.66 112.258 434.66C112.264 434.66 112.269 434.66 112.275 434.66C112.28 434.66 112.285 434.66 112.291 434.66C112.296 434.66 112.302 434.66 112.307 434.66C112.313 434.66 112.318 434.66 112.323 434.66C112.329 434.66 112.334 434.66 112.34 434.66C112.345 434.66 112.35 434.66 112.356 434.66C112.361 434.66 112.366 434.66 112.372 434.66C112.377 434.66 112.382 434.66 112.388 434.66C112.393 434.66 112.398 434.66 112.404 434.66C112.409 434.66 112.414 434.66 112.42 434.66C112.425 434.66 112.43 434.66 112.436 434.66C112.441 434.66 112.446 434.66 112.451 434.66C112.457 434.66 112.462 434.66 112.467 434.66C112.472 434.66 112.478 434.66 112.483 434.66C112.488 434.66 112.493 434.66 112.499 434.66C112.504 434.66 112.509 434.66 112.514 434.66C112.52 434.66 112.525 434.66 112.53 434.66C112.535 434.66 112.54 434.66 112.545 434.66C112.551 434.66 112.556 434.66 112.561 434.66C112.566 434.66 112.571 434.66 112.576 434.66C112.582 434.66 112.587 434.66 112.592 434.66C112.597 434.66 112.602 434.66 112.607 434.66C112.612 434.66 112.617 434.66 112.623 434.66C112.628 434.66 112.633 434.66 112.638 434.66C112.643 434.66 112.648 434.66 112.653 434.66C112.658 434.66 112.663 434.66 112.668 434.66C112.673 434.66 112.678 434.66 112.683 434.66C112.688 434.66 112.693 434.66 112.698 434.66C112.703 434.66 112.708 434.66 112.713 434.66C112.718 434.66 112.723 434.66 112.728 434.66C112.733 434.66 112.738 434.66 112.743 434.66C112.748 434.66 112.753 434.66 112.758 434.66C112.763 434.66 112.768 434.66 112.773 434.66C112.778 434.66 112.783 434.66 112.788 434.66C112.793 434.66 112.798 434.66 112.803 434.66C112.808 434.66 112.812 434.66 112.817 434.66C112.822 434.66 112.827 434.66 112.832 434.66C112.837 434.66 112.842 434.66 112.847 434.66C112.851 434.66 112.856 434.66 112.861 434.66C112.866 434.66 112.871 434.66 112.876 434.66C112.881 434.66 112.885 434.66 112.89 434.66C112.895 434.66 112.9 434.66 112.905 434.66C112.909 434.66 112.914 434.66 112.919 434.66C112.924 434.66 112.928 434.66 112.933 434.66C112.938 434.66 112.943 434.66 112.948 434.66C112.952 434.66 112.957 434.66 112.962 434.66C112.966 434.66 112.971 434.66 112.976 434.66C112.981 434.66 112.985 434.66 112.99 434.66C112.995 434.66 112.999 434.66 113.004 434.66C113.009 434.66 113.014 434.66 113.018 434.66C113.023 434.66 113.028 434.66 113.032 434.66C113.037 434.66 113.041 434.66 113.046 434.66C113.051 434.66 113.055 434.66 113.06 434.66C113.065 434.66 113.069 434.66 113.074 434.66C113.078 434.66 113.083 434.66 113.088 434.66C113.092 434.66 113.097 434.66 113.101 434.66C113.106 434.66 113.111 434.66 113.115 434.66C113.12 434.66 113.124 434.66 113.129 434.66C113.133 434.66 113.138 434.66 113.142 434.66C113.147 434.66 113.151 434.66 113.156 434.66C113.16 434.66 113.165 434.66 113.169 434.66C113.174 434.66 113.178 434.66 113.183 434.66C113.187 434.66 113.192 434.66 113.196 434.66C113.201 434.66 113.205 434.66 113.21 434.66C113.214 434.66 113.219 434.66 113.223 434.66C113.227 434.66 113.232 434.66 113.236 434.66C113.241 434.66 113.245 434.66 113.25 434.66C113.254 434.66 113.258 434.66 113.263 434.66C113.267 434.66 113.272 434.66 113.276 434.66C113.28 434.66 113.285 434.66 113.289 434.66C113.293 434.66 113.298 434.66 113.302 434.66C113.306 434.66 113.311 434.66 113.315 434.66V411.66V388.66C113.311 388.66 113.306 388.66 113.302 388.66C113.298 388.66 113.293 388.66 113.289 388.66C113.285 388.66 113.28 388.66 113.276 388.66C113.272 388.66 113.267 388.66 113.263 388.66C113.258 388.66 113.254 388.66 113.25 388.66C113.245 388.66 113.241 388.66 113.236 388.66C113.232 388.66 113.227 388.66 113.223 388.66C113.219 388.66 113.214 388.66 113.21 388.66C113.205 388.66 113.201 388.66 113.196 388.66C113.192 388.66 113.187 388.66 113.183 388.66C113.178 388.66 113.174 388.66 113.169 388.66C113.165 388.66 113.16 388.66 113.156 388.66C113.151 388.66 113.147 388.66 113.142 388.66C113.138 388.66 113.133 388.66 113.129 388.66C113.124 388.66 113.12 388.66 113.115 388.66C113.111 388.66 113.106 388.66 113.101 388.66C113.097 388.66 113.092 388.66 113.088 388.66C113.083 388.66 113.078 388.66 113.074 388.66C113.069 388.66 113.065 388.66 113.06 388.66C113.055 388.66 113.051 388.66 113.046 388.66C113.041 388.66 113.037 388.66 113.032 388.66C113.028 388.66 113.023 388.66 113.018 388.66C113.014 388.66 113.009 388.66 113.004 388.66C112.999 388.66 112.995 388.66 112.99 388.66C112.985 388.66 112.981 388.66 112.976 388.66C112.971 388.66 112.966 388.66 112.962 388.66C112.957 388.66 112.952 388.66 112.948 388.66C112.943 388.66 112.938 388.66 112.933 388.66C112.928 388.66 112.924 388.66 112.919 388.66C112.914 388.66 112.909 388.66 112.905 388.66C112.9 388.66 112.895 388.66 112.89 388.66C112.885 388.66 112.881 388.66 112.876 388.66C112.871 388.66 112.866 388.66 112.861 388.66C112.856 388.66 112.851 388.66 112.847 388.66C112.842 388.66 112.837 388.66 112.832 388.66C112.827 388.66 112.822 388.66 112.817 388.66C112.812 388.66 112.808 388.66 112.803 388.66C112.798 388.66 112.793 388.66 112.788 388.66C112.783 388.66 112.778 388.66 112.773 388.66C112.768 388.66 112.763 388.66 112.758 388.66C112.753 388.66 112.748 388.66 112.743 388.66C112.738 388.66 112.733 388.66 112.728 388.66C112.723 388.66 112.718 388.66 112.713 388.66C112.708 388.66 112.703 388.66 112.698 388.66C112.693 388.66 112.688 388.66 112.683 388.66C112.678 388.66 112.673 388.66 112.668 388.66C112.663 388.66 112.658 388.66 112.653 388.66C112.648 388.66 112.643 388.66 112.638 388.66C112.633 388.66 112.628 388.66 112.623 388.66C112.617 388.66 112.612 388.66 112.607 388.66C112.602 388.66 112.597 388.66 112.592 388.66C112.587 388.66 112.582 388.66 112.576 388.66C112.571 388.66 112.566 388.66 112.561 388.66C112.556 388.66 112.551 388.66 112.545 388.66C112.54 388.66 112.535 388.66 112.53 388.66C112.525 388.66 112.52 388.66 112.514 388.66C112.509 388.66 112.504 388.66 112.499 388.66C112.493 388.66 112.488 388.66 112.483 388.66C112.478 388.66 112.472 388.66 112.467 388.66C112.462 388.66 112.457 388.66 112.451 388.66C112.446 388.66 112.441 388.66 112.436 388.66C112.43 388.66 112.425 388.66 112.42 388.66C112.414 388.66 112.409 388.66 112.404 388.66C112.398 388.66 112.393 388.66 112.388 388.66C112.382 388.66 112.377 388.66 112.372 388.66C112.366 388.66 112.361 388.66 112.356 388.66C112.35 388.66 112.345 388.66 112.34 388.66C112.334 388.66 112.329 388.66 112.323 388.66C112.318 388.66 112.313 388.66 112.307 388.66C112.302 388.66 112.296 388.66 112.291 388.66C112.285 388.66 112.28 388.66 112.275 388.66C112.269 388.66 112.264 388.66 112.258 388.66C112.253 388.66 112.247 388.66 112.242 388.66C112.236 388.66 112.231 388.66 112.225 388.66C112.22 388.66 112.214 388.66 112.209 388.66C112.203 388.66 112.198 388.66 112.192 388.66C112.187 388.66 112.181 388.66 112.176 388.66C112.17 388.66 112.165 388.66 112.159 388.66C112.153 388.66 112.148 388.66 112.142 388.66C112.137 388.66 112.131 388.66 112.126 388.66C112.12 388.66 112.114 388.66 112.109 388.66C112.103 388.66 112.098 388.66 112.092 388.66C112.086 388.66 112.081 388.66 112.075 388.66C112.069 388.66 112.064 388.66 112.058 388.66C112.052 388.66 112.047 388.66 112.041 388.66C112.035 388.66 112.03 388.66 112.024 388.66C112.018 388.66 112.013 388.66 112.007 388.66C112.001 388.66 111.996 388.66 111.99 388.66C111.984 388.66 111.978 388.66 111.973 388.66C111.967 388.66 111.961 388.66 111.955 388.66C111.95 388.66 111.944 388.66 111.938 388.66C111.932 388.66 111.927 388.66 111.921 388.66C111.915 388.66 111.909 388.66 111.904 388.66C111.898 388.66 111.892 388.66 111.886 388.66C111.88 388.66 111.874 388.66 111.869 388.66C111.863 388.66 111.857 388.66 111.851 388.66C111.845 388.66 111.839 388.66 111.834 388.66C111.828 388.66 111.822 388.66 111.816 388.66C111.81 388.66 111.804 388.66 111.798 388.66C111.792 388.66 111.787 388.66 111.781 388.66C111.775 388.66 111.769 388.66 111.763 388.66C111.757 388.66 111.751 388.66 111.745 388.66C111.739 388.66 111.733 388.66 111.727 388.66C111.721 388.66 111.715 388.66 111.709 388.66C111.703 388.66 111.697 388.66 111.691 388.66C111.685 388.66 111.68 388.66 111.673 388.66C111.668 388.66 111.661 388.66 111.655 388.66C111.649 388.66 111.643 388.66 111.637 388.66C111.631 388.66 111.625 388.66 111.619 388.66C111.613 388.66 111.607 388.66 111.601 388.66C111.595 388.66 111.589 388.66 111.583 388.66C111.577 388.66 111.571 388.66 111.565 388.66C111.559 388.66 111.552 388.66 111.546 388.66C111.54 388.66 111.534 388.66 111.528 388.66C111.522 388.66 111.516 388.66 111.51 388.66C111.503 388.66 111.497 388.66 111.491 388.66C111.485 388.66 111.479 388.66 111.473 388.66C111.466 388.66 111.46 388.66 111.454 388.66C111.448 388.66 111.442 388.66 111.435 388.66C111.429 388.66 111.423 388.66 111.417 388.66C111.411 388.66 111.404 388.66 111.398 388.66C111.392 388.66 111.386 388.66 111.379 388.66C111.373 388.66 111.367 388.66 111.361 388.66C111.354 388.66 111.348 388.66 111.342 388.66C111.335 388.66 111.329 388.66 111.323 388.66C111.317 388.66 111.31 388.66 111.304 388.66C111.298 388.66 111.291 388.66 111.285 388.66C111.279 388.66 111.272 388.66 111.266 388.66C111.26 388.66 111.253 388.66 111.247 388.66C111.241 388.66 111.234 388.66 111.228 388.66C111.221 388.66 111.215 388.66 111.209 388.66C111.202 388.66 111.196 388.66 111.189 388.66C111.183 388.66 111.177 388.66 111.17 388.66C111.164 388.66 111.157 388.66 111.151 388.66C111.144 388.66 111.138 388.66 111.131 388.66C111.125 388.66 111.119 388.66 111.112 388.66C111.106 388.66 111.099 388.66 111.093 388.66C111.086 388.66 111.08 388.66 111.073 388.66C111.067 388.66 111.06 388.66 111.054 388.66C111.047 388.66 111.04 388.66 111.034 388.66C111.027 388.66 111.021 388.66 111.014 388.66C111.008 388.66 111.001 388.66 110.995 388.66C110.988 388.66 110.981 388.66 110.975 388.66C110.968 388.66 110.962 388.66 110.955 388.66C110.948 388.66 110.942 388.66 110.935 388.66C110.929 388.66 110.922 388.66 110.915 388.66C110.909 388.66 110.902 388.66 110.895 388.66C110.889 388.66 110.882 388.66 110.875 388.66C110.869 388.66 110.862 388.66 110.855 388.66C110.849 388.66 110.842 388.66 110.835 388.66C110.829 388.66 110.822 388.66 110.815 388.66C110.809 388.66 110.802 388.66 110.795 388.66C110.788 388.66 110.782 388.66 110.775 388.66C110.768 388.66 110.761 388.66 110.755 388.66C110.748 388.66 110.741 388.66 110.734 388.66C110.728 388.66 110.721 388.66 110.714 388.66C110.707 388.66 110.7 388.66 110.694 388.66C110.687 388.66 110.68 388.66 110.673 388.66C110.666 388.66 110.659 388.66 110.653 388.66C110.646 388.66 110.639 388.66 110.632 388.66C110.625 388.66 110.618 388.66 110.612 388.66C110.605 388.66 110.598 388.66 110.591 388.66C110.584 388.66 110.577 388.66 110.57 388.66C110.563 388.66 110.556 388.66 110.549 388.66C110.543 388.66 110.536 388.66 110.529 388.66C110.522 388.66 110.515 388.66 110.508 388.66C110.501 388.66 110.494 388.66 110.487 388.66C110.48 388.66 110.473 388.66 110.466 388.66C110.459 388.66 110.452 388.66 110.445 388.66C110.438 388.66 110.431 388.66 110.424 388.66C110.417 388.66 110.41 388.66 110.403 388.66C110.396 388.66 110.389 388.66 110.382 388.66C110.375 388.66 110.368 388.66 110.361 388.66C110.354 388.66 110.347 388.66 110.339 388.66C110.332 388.66 110.325 388.66 110.318 388.66C110.311 388.66 110.304 388.66 110.297 388.66C110.29 388.66 110.283 388.66 110.276 388.66C110.268 388.66 110.261 388.66 110.254 388.66C110.247 388.66 110.24 388.66 110.233 388.66C110.226 388.66 110.218 388.66 110.211 388.66C110.204 388.66 110.197 388.66 110.19 388.66C110.183 388.66 110.175 388.66 110.168 388.66C110.161 388.66 110.154 388.66 110.146 388.66C110.139 388.66 110.132 388.66 110.125 388.66C110.118 388.66 110.11 388.66 110.103 388.66C110.096 388.66 110.089 388.66 110.081 388.66C110.074 388.66 110.067 388.66 110.059 388.66C110.052 388.66 110.045 388.66 110.038 388.66C110.03 388.66 110.023 388.66 110.016 388.66C110.008 388.66 110.001 388.66 109.994 388.66C109.986 388.66 109.979 388.66 109.972 388.66C109.964 388.66 109.957 388.66 109.95 388.66C109.942 388.66 109.935 388.66 109.928 388.66C109.92 388.66 109.913 388.66 109.905 388.66C109.898 388.66 109.891 388.66 109.883 388.66C109.876 388.66 109.868 388.66 109.861 388.66C109.853 388.66 109.846 388.66 109.839 388.66C109.831 388.66 109.824 388.66 109.816 388.66C109.809 388.66 109.801 388.66 109.794 388.66C109.786 388.66 109.779 388.66 109.771 388.66C109.764 388.66 109.756 388.66 109.749 388.66C109.741 388.66 109.734 388.66 109.726 388.66C109.719 388.66 109.711 388.66 109.704 388.66C109.696 388.66 109.689 388.66 109.681 388.66C109.674 388.66 109.666 388.66 109.658 388.66C109.651 388.66 109.643 388.66 109.636 388.66C109.628 388.66 109.621 388.66 109.613 388.66C109.605 388.66 109.598 388.66 109.59 388.66C109.583 388.66 109.575 388.66 109.567 388.66C109.56 388.66 109.552 388.66 109.544 388.66C109.537 388.66 109.529 388.66 109.521 388.66C109.514 388.66 109.506 388.66 109.498 388.66C109.491 388.66 109.483 388.66 109.475 388.66C109.468 388.66 109.46 388.66 109.452 388.66C109.444 388.66 109.437 388.66 109.429 388.66C109.421 388.66 109.414 388.66 109.406 388.66C109.398 388.66 109.39 388.66 109.383 388.66C109.375 388.66 109.367 388.66 109.359 388.66C109.352 388.66 109.344 388.66 109.336 388.66C109.328 388.66 109.32 388.66 109.313 388.66C109.305 388.66 109.297 388.66 109.289 388.66C109.281 388.66 109.273 388.66 109.266 388.66C109.258 388.66 109.25 388.66 109.242 388.66C109.234 388.66 109.226 388.66 109.219 388.66C109.211 388.66 109.203 388.66 109.195 388.66C109.187 388.66 109.179 388.66 109.171 388.66C109.163 388.66 109.155 388.66 109.147 388.66C109.14 388.66 109.132 388.66 109.124 388.66C109.116 388.66 109.108 388.66 109.1 388.66C109.092 388.66 109.084 388.66 109.076 388.66C109.068 388.66 109.06 388.66 109.052 388.66C109.044 388.66 109.036 388.66 109.028 388.66C109.02 388.66 109.012 388.66 109.004 388.66C108.996 388.66 108.988 388.66 108.98 388.66C108.972 388.66 108.964 388.66 108.956 388.66C108.948 388.66 108.94 388.66 108.932 388.66C108.924 388.66 108.916 388.66 108.908 388.66C108.9 388.66 108.891 388.66 108.883 388.66C108.875 388.66 108.867 388.66 108.859 388.66C108.851 388.66 108.843 388.66 108.835 388.66C108.827 388.66 108.818 388.66 108.81 388.66C108.802 388.66 108.794 388.66 108.786 388.66C108.778 388.66 108.77 388.66 108.761 388.66C108.753 388.66 108.745 388.66 108.737 388.66C108.729 388.66 108.72 388.66 108.712 388.66C108.704 388.66 108.696 388.66 108.688 388.66C108.679 388.66 108.671 388.66 108.663 388.66C108.655 388.66 108.646 388.66 108.638 388.66C108.63 388.66 108.622 388.66 108.613 388.66C108.605 388.66 108.597 388.66 108.589 388.66C108.58 388.66 108.572 388.66 108.564 388.66C108.555 388.66 108.547 388.66 108.539 388.66C108.531 388.66 108.522 388.66 108.514 388.66C108.506 388.66 108.497 388.66 108.489 388.66C108.481 388.66 108.472 388.66 108.464 388.66C108.456 388.66 108.447 388.66 108.439 388.66C108.43 388.66 108.422 388.66 108.414 388.66C108.405 388.66 108.397 388.66 108.388 388.66C108.38 388.66 108.372 388.66 108.363 388.66C108.355 388.66 108.346 388.66 108.338 388.66C108.329 388.66 108.321 388.66 108.313 388.66C108.304 388.66 108.296 388.66 108.287 388.66C108.279 388.66 108.27 388.66 108.262 388.66C108.253 388.66 108.245 388.66 108.236 388.66C108.228 388.66 108.219 388.66 108.211 388.66C108.202 388.66 108.194 388.66 108.185 388.66C108.177 388.66 108.168 388.66 108.159 388.66C108.151 388.66 108.142 388.66 108.134 388.66C108.125 388.66 108.117 388.66 108.108 388.66C108.1 388.66 108.091 388.66 108.082 388.66C108.074 388.66 108.065 388.66 108.057 388.66C108.048 388.66 108.039 388.66 108.031 388.66C108.022 388.66 108.013 388.66 108.005 388.66C107.996 388.66 107.987 388.66 107.979 388.66C107.97 388.66 107.961 388.66 107.953 388.66C107.944 388.66 107.935 388.66 107.927 388.66C107.918 388.66 107.909 388.66 107.901 388.66C107.892 388.66 107.883 388.66 107.874 388.66C107.866 388.66 107.857 388.66 107.848 388.66C107.84 388.66 107.831 388.66 107.822 388.66C107.813 388.66 107.805 388.66 107.796 388.66C107.787 388.66 107.778 388.66 107.769 388.66C107.761 388.66 107.752 388.66 107.743 388.66C107.734 388.66 107.725 388.66 107.717 388.66C107.708 388.66 107.699 388.66 107.69 388.66C107.681 388.66 107.672 388.66 107.664 388.66C107.655 388.66 107.646 388.66 107.637 388.66C107.628 388.66 107.619 388.66 107.61 388.66C107.602 388.66 107.593 388.66 107.584 388.66C107.575 388.66 107.566 388.66 107.557 388.66C107.548 388.66 107.539 388.66 107.53 388.66C107.521 388.66 107.512 388.66 107.503 388.66C107.494 388.66 107.486 388.66 107.477 388.66C107.468 388.66 107.459 388.66 107.45 388.66C107.441 388.66 107.432 388.66 107.423 388.66C107.414 388.66 107.405 388.66 107.396 388.66C107.387 388.66 107.378 388.66 107.369 388.66C107.36 388.66 107.351 388.66 107.342 388.66C107.332 388.66 107.323 388.66 107.314 388.66C107.305 388.66 107.296 388.66 107.287 388.66C107.278 388.66 107.269 388.66 107.26 388.66C107.251 388.66 107.242 388.66 107.233 388.66C107.224 388.66 107.214 388.66 107.205 388.66C107.196 388.66 107.187 388.66 107.178 388.66C107.169 388.66 107.16 388.66 107.151 388.66C107.141 388.66 107.132 388.66 107.123 388.66C107.114 388.66 107.105 388.66 107.096 388.66C107.086 388.66 107.077 388.66 107.068 388.66C107.059 388.66 107.05 388.66 107.04 388.66C107.031 388.66 107.022 388.66 107.013 388.66C107.003 388.66 106.994 388.66 106.985 388.66C106.976 388.66 106.966 388.66 106.957 388.66C106.948 388.66 106.939 388.66 106.929 388.66C106.92 388.66 106.911 388.66 106.902 388.66C106.892 388.66 106.883 388.66 106.874 388.66C106.864 388.66 106.855 388.66 106.846 388.66C106.836 388.66 106.827 388.66 106.818 388.66C106.808 388.66 106.799 388.66 106.79 388.66C106.78 388.66 106.771 388.66 106.762 388.66C106.752 388.66 106.743 388.66 106.733 388.66C106.724 388.66 106.715 388.66 106.705 388.66C106.696 388.66 106.686 388.66 106.677 388.66C106.668 388.66 106.658 388.66 106.649 388.66C106.639 388.66 106.63 388.66 106.62 388.66C106.611 388.66 106.601 388.66 106.592 388.66C106.582 388.66 106.573 388.66 106.564 388.66C106.554 388.66 106.545 388.66 106.535 388.66C106.526 388.66 106.516 388.66 106.507 388.66C106.497 388.66 106.487 388.66 106.478 388.66C106.468 388.66 106.459 388.66 106.449 388.66C106.44 388.66 106.43 388.66 106.421 388.66C106.411 388.66 106.402 388.66 106.392 388.66C106.382 388.66 106.373 388.66 106.363 388.66C106.354 388.66 106.344 388.66 106.334 388.66C106.325 388.66 106.315 388.66 106.306 388.66C106.296 388.66 106.286 388.66 106.277 388.66C106.267 388.66 106.257 388.66 106.248 388.66C106.238 388.66 106.228 388.66 106.219 388.66C106.209 388.66 106.199 388.66 106.19 388.66C106.18 388.66 106.17 388.66 106.161 388.66C106.151 388.66 106.141 388.66 106.131 388.66C106.122 388.66 106.112 388.66 106.102 388.66C106.092 388.66 106.083 388.66 106.073 388.66C106.063 388.66 106.053 388.66 106.044 388.66C106.034 388.66 106.024 388.66 106.014 388.66C106.005 388.66 105.995 388.66 105.985 388.66C105.975 388.66 105.965 388.66 105.956 388.66C105.946 388.66 105.936 388.66 105.926 388.66C105.916 388.66 105.906 388.66 105.897 388.66C105.887 388.66 105.877 388.66 105.867 388.66C105.857 388.66 105.847 388.66 105.837 388.66C105.827 388.66 105.818 388.66 105.808 388.66C105.798 388.66 105.788 388.66 105.778 388.66C105.768 388.66 105.758 388.66 105.748 388.66C105.738 388.66 105.728 388.66 105.718 388.66C105.708 388.66 105.699 388.66 105.689 388.66C105.679 388.66 105.669 388.66 105.659 388.66C105.649 388.66 105.639 388.66 105.629 388.66C105.619 388.66 105.609 388.66 105.599 388.66C105.589 388.66 105.579 388.66 105.569 388.66C105.559 388.66 105.549 388.66 105.539 388.66C105.529 388.66 105.519 388.66 105.508 388.66C105.498 388.66 105.488 388.66 105.478 388.66C105.468 388.66 105.458 388.66 105.448 388.66C105.438 388.66 105.428 388.66 105.418 388.66C105.408 388.66 105.398 388.66 105.387 388.66C105.377 388.66 105.367 388.66 105.357 388.66C105.347 388.66 105.337 388.66 105.327 388.66C105.317 388.66 105.306 388.66 105.296 388.66C105.286 388.66 105.276 388.66 105.266 388.66C105.255 388.66 105.245 388.66 105.235 388.66C105.225 388.66 105.215 388.66 105.204 388.66C105.194 388.66 105.184 388.66 105.174 388.66C105.164 388.66 105.153 388.66 105.143 388.66C105.133 388.66 105.123 388.66 105.112 388.66C105.102 388.66 105.092 388.66 105.082 388.66C105.071 388.66 105.061 388.66 105.051 388.66C105.04 388.66 105.03 388.66 105.02 388.66C105.01 388.66 104.999 388.66 104.989 388.66C104.979 388.66 104.968 388.66 104.958 388.66C104.948 388.66 104.937 388.66 104.927 388.66C104.916 388.66 104.906 388.66 104.896 388.66C104.885 388.66 104.875 388.66 104.865 388.66C104.854 388.66 104.844 388.66 104.833 388.66C104.823 388.66 104.813 388.66 104.802 388.66C104.792 388.66 104.781 388.66 104.771 388.66C104.76 388.66 104.75 388.66 104.74 388.66C104.729 388.66 104.719 388.66 104.708 388.66C104.698 388.66 104.687 388.66 104.677 388.66C104.666 388.66 104.656 388.66 104.645 388.66C104.635 388.66 104.624 388.66 104.614 388.66C104.603 388.66 104.593 388.66 104.582 388.66C104.572 388.66 104.561 388.66 104.551 388.66C104.54 388.66 104.53 388.66 104.519 388.66C104.508 388.66 104.498 388.66 104.487 388.66C104.477 388.66 104.466 388.66 104.456 388.66C104.445 388.66 104.434 388.66 104.424 388.66C104.413 388.66 104.403 388.66 104.392 388.66C104.381 388.66 104.371 388.66 104.36 388.66C104.349 388.66 104.339 388.66 104.328 388.66C104.317 388.66 104.307 388.66 104.296 388.66C104.285 388.66 104.275 388.66 104.264 388.66C104.253 388.66 104.243 388.66 104.232 388.66C104.221 388.66 104.211 388.66 104.2 388.66C104.189 388.66 104.178 388.66 104.168 388.66C104.157 388.66 104.146 388.66 104.135 388.66C104.125 388.66 104.114 388.66 104.103 388.66C104.092 388.66 104.082 388.66 104.071 388.66C104.06 388.66 104.049 388.66 104.038 388.66C104.028 388.66 104.017 388.66 104.006 388.66C103.995 388.66 103.984 388.66 103.974 388.66C103.963 388.66 103.952 388.66 103.941 388.66C103.93 388.66 103.919 388.66 103.908 388.66C103.898 388.66 103.887 388.66 103.876 388.66C103.865 388.66 103.854 388.66 103.843 388.66C103.832 388.66 103.821 388.66 103.811 388.66C103.8 388.66 103.789 388.66 103.778 388.66C103.767 388.66 103.756 388.66 103.745 388.66C103.734 388.66 103.723 388.66 103.712 388.66C103.701 388.66 103.69 388.66 103.679 388.66C103.668 388.66 103.657 388.66 103.646 388.66C103.635 388.66 103.624 388.66 103.613 388.66C103.602 388.66 103.591 388.66 103.58 388.66C103.569 388.66 103.558 388.66 103.547 388.66C103.536 388.66 103.525 388.66 103.514 388.66C103.503 388.66 103.492 388.66 103.481 388.66C103.47 388.66 103.459 388.66 103.448 388.66C103.437 388.66 103.426 388.66 103.414 388.66C103.403 388.66 103.392 388.66 103.381 388.66C103.37 388.66 103.359 388.66 103.348 388.66C103.337 388.66 103.325 388.66 103.314 388.66C103.303 388.66 103.292 388.66 103.281 388.66C103.27 388.66 103.259 388.66 103.247 388.66C103.236 388.66 103.225 388.66 103.214 388.66C103.203 388.66 103.191 388.66 103.18 388.66C103.169 388.66 103.158 388.66 103.147 388.66C103.135 388.66 103.124 388.66 103.113 388.66C103.102 388.66 103.09 388.66 103.079 388.66C103.068 388.66 103.057 388.66 103.045 388.66C103.034 388.66 103.023 388.66 103.011 388.66C103 388.66 102.989 388.66 102.978 388.66C102.966 388.66 102.955 388.66 102.944 388.66C102.932 388.66 102.921 388.66 102.91 388.66C102.898 388.66 102.887 388.66 102.876 388.66C102.864 388.66 102.853 388.66 102.842 388.66C102.83 388.66 102.819 388.66 102.807 388.66C102.796 388.66 102.785 388.66 102.773 388.66C102.762 388.66 102.75 388.66 102.739 388.66C102.728 388.66 102.716 388.66 102.705 388.66C102.693 388.66 102.682 388.66 102.67 388.66C102.659 388.66 102.647 388.66 102.636 388.66C102.625 388.66 102.613 388.66 102.602 388.66C102.59 388.66 102.579 388.66 102.567 388.66C102.556 388.66 102.544 388.66 102.533 388.66C102.521 388.66 102.51 388.66 102.498 388.66C102.487 388.66 102.475 388.66 102.464 388.66C102.452 388.66 102.44 388.66 102.429 388.66C102.417 388.66 102.406 388.66 102.394 388.66C102.383 388.66 102.371 388.66 102.359 388.66C102.348 388.66 102.336 388.66 102.325 388.66C102.313 388.66 102.301 388.66 102.29 388.66C102.278 388.66 102.267 388.66 102.255 388.66C102.243 388.66 102.232 388.66 102.22 388.66C102.208 388.66 102.197 388.66 102.185 388.66C102.173 388.66 102.162 388.66 102.15 388.66C102.138 388.66 102.127 388.66 102.115 388.66C102.103 388.66 102.091 388.66 102.08 388.66C102.068 388.66 102.056 388.66 102.045 388.66C102.033 388.66 102.021 388.66 102.009 388.66C101.998 388.66 101.986 388.66 101.974 388.66C101.962 388.66 101.951 388.66 101.939 388.66C101.927 388.66 101.915 388.66 101.903 388.66C101.892 388.66 101.88 388.66 101.868 388.66C101.856 388.66 101.844 388.66 101.833 388.66C101.821 388.66 101.809 388.66 101.797 388.66C101.785 388.66 101.773 388.66 101.761 388.66C101.75 388.66 101.738 388.66 101.726 388.66C101.714 388.66 101.702 388.66 101.69 388.66C101.678 388.66 101.666 388.66 101.655 388.66C101.643 388.66 101.631 388.66 101.619 388.66C101.607 388.66 101.595 388.66 101.583 388.66C101.571 388.66 101.559 388.66 101.547 388.66C101.535 388.66 101.523 388.66 101.511 388.66C101.499 388.66 101.487 388.66 101.475 388.66C101.463 388.66 101.451 388.66 101.439 388.66C101.427 388.66 101.415 388.66 101.403 388.66C101.391 388.66 101.379 388.66 101.367 388.66C101.355 388.66 101.343 388.66 101.331 388.66C101.319 388.66 101.307 388.66 101.295 388.66C101.283 388.66 101.271 388.66 101.259 388.66C101.247 388.66 101.235 388.66 101.223 388.66C101.21 388.66 101.198 388.66 101.186 388.66C101.174 388.66 101.162 388.66 101.15 388.66C101.138 388.66 101.126 388.66 101.113 388.66C101.101 388.66 101.089 388.66 101.077 388.66C101.065 388.66 101.053 388.66 101.04 388.66C101.028 388.66 101.016 388.66 101.004 388.66C100.992 388.66 100.98 388.66 100.967 388.66C100.955 388.66 100.943 388.66 100.931 388.66C100.918 388.66 100.906 388.66 100.894 388.66C100.882 388.66 100.87 388.66 100.857 388.66C100.845 388.66 100.833 388.66 100.82 388.66C100.808 388.66 100.796 388.66 100.784 388.66C100.771 388.66 100.759 388.66 100.747 388.66C100.734 388.66 100.722 388.66 100.71 388.66C100.698 388.66 100.685 388.66 100.673 388.66C100.661 388.66 100.648 388.66 100.636 388.66C100.623 388.66 100.611 388.66 100.599 388.66C100.586 388.66 100.574 388.66 100.562 388.66C100.549 388.66 100.537 388.66 100.524 388.66C100.512 388.66 100.5 388.66 100.487 388.66C100.475 388.66 100.462 388.66 100.45 388.66V411.66ZM113.315 411.66L114.954 434.602C120.128 434.232 127.694 432.505 133.936 426.263C140.443 419.756 142.125 411.764 142.125 405.85H119.125H96.125C96.125 403.533 96.8387 398.307 101.409 393.737C105.714 389.432 110.375 388.811 111.676 388.718L113.315 411.66ZM119.125 405.85H142.125V191.71H119.125H96.125V405.85H119.125ZM61.855 281.35L69.2873 303.116C80.7675 299.196 93.8842 294.591 108.627 289.306L100.865 267.655L93.1034 246.004C78.5191 251.232 65.6292 255.757 54.4227 259.584L61.855 281.35ZM100.865 267.655L108.853 289.223C123.884 283.656 139.735 277.677 156.408 271.286L148.175 249.81L139.942 228.334C123.415 234.67 107.726 240.587 92.8768 246.087L100.865 267.655ZM148.175 249.81L156.408 271.286C173.112 264.883 189.815 258.341 206.517 251.66L197.975 230.305L189.433 208.95C172.935 215.549 156.438 222.01 139.942 228.334L148.175 249.81ZM197.975 230.305L175.564 235.477L183.034 267.847L205.445 262.675L227.856 257.503L220.386 225.133L197.975 230.305ZM205.445 262.675L196.688 241.407C173.129 251.108 149.433 260.947 125.599 270.924L134.48 292.14L143.361 313.356C167.114 303.413 190.728 293.609 214.202 283.943L205.445 262.675ZM134.48 292.14L125.723 270.872C102.194 280.561 80.7367 289.421 61.352 297.451L70.155 318.7L78.958 339.949C98.3066 331.933 119.733 323.086 143.237 313.408L134.48 292.14ZM70.155 318.7L92.6073 313.711L84.3073 276.361L61.855 281.35L39.4027 286.339L47.7027 323.689L70.155 318.7ZM169.755 85.885V108.885H178.47V85.885V62.885H169.755V85.885ZM178.47 85.885L184.626 108.046L192.096 105.971L185.94 83.81L179.784 61.6491L172.314 63.7241L178.47 85.885ZM185.94 83.81L172.664 102.591L196.734 119.606L210.01 100.825L223.286 82.0437L199.216 65.0287L185.94 83.81ZM210.01 100.825L189.627 90.1701C183.38 102.121 176.432 114.928 168.777 128.597L188.845 139.835L208.913 151.073C216.751 137.075 223.913 123.876 230.393 111.48L210.01 100.825ZM188.845 139.835L168.701 128.735C161.532 141.744 153.982 154.193 146.053 166.087L165.19 178.845L184.327 191.603C192.998 178.597 201.218 165.039 208.989 150.935L188.845 139.835ZM165.19 178.845L146.053 166.087C138.155 177.933 130.534 188.112 123.206 196.704L140.705 211.63L158.204 226.556C166.923 216.334 175.625 204.657 184.327 191.603L165.19 178.845ZM140.705 211.63L158.506 197.066C154.918 192.68 150.441 188.29 145.476 183.946L130.33 201.255L115.184 218.564C119.073 221.967 121.512 224.493 122.904 226.194L140.705 211.63ZM130.33 201.255L145.476 183.946C140.941 179.978 137 176.617 133.689 173.909L119.125 191.71L104.561 209.511C107.337 211.783 110.865 214.785 115.184 218.564L130.33 201.255ZM119.125 191.71L137.596 205.414C144.715 195.82 151.634 184.796 158.388 172.462L138.215 161.415L118.042 150.368C112.069 161.274 106.262 170.447 100.654 178.006L119.125 191.71ZM138.215 161.415L158.185 172.826C165.137 160.659 171.52 148.331 177.33 135.84L156.475 126.14L135.62 116.44C130.363 127.743 124.573 138.931 118.245 150.004L138.215 161.415ZM156.475 126.14L177.33 135.84C183.083 123.47 187.816 112.118 191.444 101.84L169.755 94.185L148.066 86.5301C145.054 95.0656 140.934 105.017 135.62 116.44L156.475 126.14ZM169.755 94.185H192.755V85.885H169.755H146.755V94.185H169.755ZM361.485 225.74L371.648 246.373L399.453 232.678L389.29 212.045L379.127 191.412L351.322 205.107L361.485 225.74ZM389.29 212.045L370.689 225.573C376.942 234.171 383.255 243.633 389.622 253.979L409.21 241.925L428.798 229.871C421.885 218.637 414.918 208.179 407.891 198.517L389.29 212.045ZM409.21 241.925L389.995 254.566C396.603 264.609 402.658 274.617 408.169 284.59L428.3 273.465L448.431 262.34C442.322 251.286 435.651 240.267 428.425 229.284L409.21 241.925ZM428.3 273.465L408.531 285.22C414.228 294.802 418.147 302.636 420.588 308.85L441.995 300.44L463.402 292.03C459.757 282.75 454.545 272.601 448.069 261.71L428.3 273.465ZM441.995 300.44L430.825 280.334L400.945 296.934L412.115 317.04L423.285 337.146L453.165 320.546L441.995 300.44ZM412.115 317.04L433.62 308.883C430.146 299.725 425.42 289.574 419.603 278.523L399.25 289.235L378.897 299.947C384.147 309.922 387.997 318.308 390.61 325.197L412.115 317.04ZM399.25 289.235L419.603 278.523C413.854 267.599 407.554 256.435 400.712 245.032L380.99 256.865L361.268 268.698C367.706 279.428 373.58 289.844 378.897 299.947L399.25 289.235ZM380.99 256.865L400.712 245.032C393.929 233.725 387.26 223.082 380.706 213.109L361.485 225.74L342.264 238.371C348.437 247.764 354.771 257.871 361.268 268.698L380.99 256.865ZM355.26 329.905L364.734 350.863L395.029 337.168L385.555 316.21L376.081 295.252L345.786 308.947L355.26 329.905ZM385.555 316.21L367.285 330.181C374.171 339.186 381.239 349.05 388.487 359.788L407.55 346.92L426.614 334.052C418.921 322.656 411.326 312.047 403.825 302.239L385.555 316.21ZM407.55 346.92L388.486 359.788C395.712 370.493 402.377 381.026 408.489 391.389L428.3 379.705L448.111 368.021C441.496 356.804 434.328 345.481 426.614 334.052L407.55 346.92ZM428.3 379.705L408.624 391.614C414.694 401.643 419.383 410.302 422.813 417.651L443.655 407.925L464.497 398.199C460.18 388.948 454.633 378.793 447.977 367.796L428.3 379.705ZM443.655 407.925L432.943 387.572L401.403 404.172L412.115 424.525L422.827 444.878L454.367 428.278L443.655 407.925ZM412.115 424.525L432.957 414.799C428.682 405.638 423.184 395.419 416.571 384.206L396.76 395.89L376.949 407.574C383.063 417.941 387.801 426.812 391.273 434.251L412.115 424.525ZM396.76 395.89L416.913 384.806C410.582 373.295 403.697 361.679 396.264 349.958L376.84 362.275L357.416 374.592C364.37 385.558 370.765 396.351 376.607 406.974L396.76 395.89ZM376.84 362.275L396.396 350.169C388.947 338.136 381.452 326.887 373.906 316.439L355.26 329.905L336.614 343.371C343.455 352.843 350.346 363.174 357.284 374.381L376.84 362.275ZM245.285 322.435L239.211 344.618L274.071 354.163L280.145 331.98L286.219 309.797L251.359 300.252L245.285 322.435ZM280.145 331.98L259.195 322.487C251.684 339.065 242.571 355.616 231.818 372.14L251.095 384.685L270.372 397.23C282.306 378.894 292.56 360.308 301.095 341.473L280.145 331.98ZM251.095 384.685L231.768 372.216C221.209 388.582 211.03 402.051 201.273 412.808L218.31 428.26L235.347 443.712C247.17 430.675 258.847 415.094 270.422 397.154L251.095 384.685ZM218.31 428.26L231.068 409.123C227.705 406.881 223.659 404.548 219.174 402.156L208.35 422.45L197.526 442.744C201.341 444.779 203.935 446.319 205.552 447.397L218.31 428.26ZM208.35 422.45L218.636 401.878C214.567 399.844 210.368 397.817 206.041 395.798L196.315 416.64L186.589 437.482C190.562 439.336 194.386 441.183 198.064 443.022L208.35 422.45ZM196.315 416.64L204.857 395.285C200.785 393.656 197.154 392.177 193.956 390.844L185.11 412.075L176.264 433.306C179.706 434.74 183.545 436.304 187.773 437.995L196.315 416.64ZM185.11 412.075L200.581 429.094C214.406 416.526 226.972 401.419 238.379 384.01L219.14 371.405L199.901 358.8C190.281 373.484 180.16 385.491 169.639 395.056L185.11 412.075ZM219.14 371.405L238.476 383.859C249.635 366.534 258.987 349.051 266.462 331.408L245.285 322.435L224.108 313.462C217.75 328.466 209.671 343.63 199.804 358.951L219.14 371.405ZM223.705 230.305L246.157 225.316C245.311 221.508 243.996 217.324 242.46 213.024L220.8 220.76L199.14 228.496C200.371 231.943 200.992 234.122 201.253 235.294L223.705 230.305ZM220.8 220.76L243.023 214.834C241.827 210.347 240.491 205.747 239.018 201.035L217.065 207.895L195.112 214.755C196.406 218.897 197.56 222.873 198.577 226.686L220.8 220.76ZM217.065 207.895L239.018 201.035C237.429 195.951 235.621 191.087 233.487 186.819L212.915 197.105L192.343 207.391C192.976 208.656 193.934 210.986 195.112 214.755L217.065 207.895ZM212.915 197.105L217.426 219.658C224.009 218.342 230.274 215.989 236.189 212.834L225.365 192.54L214.541 172.246C212.156 173.518 210.121 174.208 208.404 174.552L212.915 197.105ZM225.365 192.54L236.189 212.834C241.152 210.187 246.372 207.008 251.818 203.377L239.06 184.24L226.302 165.103C221.788 168.112 217.878 170.466 214.542 172.246L225.365 192.54ZM239.06 184.24L252.152 203.15C256.366 200.233 262.509 195.57 270.285 189.46L256.075 171.375L241.865 153.29C234.148 159.353 228.947 163.267 225.968 165.33L239.06 184.24ZM256.075 171.375L270.367 189.395C278.989 182.557 288.054 174.652 297.553 165.729L281.805 148.965L266.057 132.201C257.296 140.432 249.208 147.466 241.783 153.355L256.075 171.375ZM281.805 148.965L297.568 165.714C307.471 156.393 316.695 146.881 325.227 137.173L307.95 121.99L290.673 106.807C283.158 115.359 274.952 123.83 266.042 132.216L281.805 148.965ZM307.95 121.99L297.56 142.51L330.345 159.11L340.735 138.59L351.125 118.07L318.34 101.47L307.95 121.99ZM340.735 138.59L324.317 122.482C310.65 136.413 295.905 149.581 280.072 161.984L294.255 180.09L308.438 198.196C325.805 184.592 342.047 170.094 357.153 154.698L340.735 138.59ZM294.255 180.09L280.072 161.984C264.248 174.379 249.036 184.625 234.441 192.819L245.7 212.875L256.959 232.931C273.904 223.418 291.062 211.807 308.438 198.196L294.255 180.09ZM245.7 212.875H222.7V213.705H245.7H268.7V212.875H245.7ZM245.7 213.705C235.414 193.133 235.414 193.133 235.414 193.133C235.414 193.133 235.414 193.133 235.414 193.133C235.414 193.133 235.414 193.133 235.414 193.133C235.414 193.133 235.414 193.133 235.414 193.133C235.414 193.133 235.414 193.133 235.414 193.133C235.414 193.133 235.414 193.133 235.413 193.133C235.413 193.134 235.413 193.134 235.413 193.134C235.413 193.134 235.413 193.134 235.413 193.134C235.413 193.134 235.413 193.134 235.413 193.134C235.412 193.134 235.412 193.134 235.412 193.134C235.411 193.135 235.412 193.134 235.412 193.134C235.411 193.135 235.411 193.135 235.411 193.135C235.406 193.137 235.408 193.136 235.401 193.14C235.392 193.144 235.396 193.142 235.385 193.148C235.353 193.164 235.397 193.142 235.362 193.159C235.353 193.163 235.358 193.161 235.348 193.166C235.348 193.166 235.347 193.167 235.347 193.167C235.346 193.167 235.345 193.168 235.345 193.168C235.34 193.17 235.346 193.167 235.341 193.17C235.33 193.175 235.344 193.168 235.333 193.174C235.322 193.179 235.328 193.176 235.316 193.182C235.316 193.182 235.312 193.184 235.311 193.184C235.311 193.185 235.31 193.185 235.309 193.186C235.308 193.186 235.308 193.186 235.307 193.187C235.307 193.187 235.298 193.191 235.297 193.192C235.294 193.193 235.296 193.192 235.292 193.194C235.292 193.194 235.291 193.195 235.29 193.195C235.289 193.196 235.288 193.196 235.287 193.197C235.281 193.2 235.284 193.198 235.277 193.202C235.263 193.209 235.27 193.205 235.255 193.213C235.244 193.218 235.261 193.21 235.249 193.215C235.242 193.219 235.251 193.215 235.244 193.218C235.236 193.222 235.24 193.22 235.232 193.224C235.228 193.226 235.23 193.225 235.226 193.227C235.225 193.228 235.224 193.228 235.222 193.229C235.221 193.23 235.22 193.23 235.219 193.231C235.211 193.235 235.215 193.233 235.207 193.237C235.198 193.241 235.202 193.239 235.193 193.244C235.192 193.244 235.191 193.245 235.19 193.245C235.189 193.246 235.188 193.246 235.187 193.247C235.186 193.247 235.184 193.248 235.183 193.249C235.182 193.249 235.181 193.25 235.18 193.25C235.179 193.251 235.178 193.251 235.176 193.252C235.175 193.253 235.174 193.253 235.173 193.254C235.172 193.254 235.171 193.255 235.169 193.256C235.168 193.256 235.167 193.257 235.166 193.257C235.166 193.257 235.152 193.264 235.151 193.264C235.111 193.285 235.162 193.259 235.121 193.279C235.101 193.29 235.111 193.285 235.09 193.295C235 193.34 235.113 193.283 235.022 193.329C235.01 193.335 235.016 193.332 235.004 193.338C235.002 193.339 235.001 193.34 234.999 193.341C234.998 193.341 234.996 193.342 234.995 193.343C234.993 193.344 234.991 193.344 234.99 193.345C234.988 193.346 234.987 193.347 234.985 193.348C234.985 193.348 234.948 193.366 234.947 193.367C234.705 193.488 234.861 193.41 234.584 193.548C233.289 194.195 233.942 193.869 232.094 194.793L242.38 215.365L252.666 235.937C252.701 235.919 252.657 235.941 252.692 235.924C252.726 235.907 252.683 235.928 252.718 235.911C252.752 235.894 252.735 235.902 252.769 235.885C252.803 235.868 252.786 235.877 252.82 235.86C252.837 235.851 252.828 235.856 252.845 235.847C252.862 235.839 252.854 235.843 252.87 235.835C253.138 235.701 252.802 235.869 253.068 235.736C253.321 235.609 253.009 235.765 253.259 235.64C253.259 235.64 253.283 235.628 253.283 235.628C253.287 235.626 253.291 235.625 253.294 235.623C253.298 235.621 253.302 235.619 253.306 235.617C253.337 235.601 253.321 235.609 253.352 235.594C253.474 235.533 253.323 235.608 253.444 235.548C253.505 235.517 253.429 235.555 253.489 235.525C253.519 235.51 253.504 235.518 253.534 235.503C253.653 235.443 253.504 235.518 253.622 235.459C253.737 235.401 253.595 235.472 253.709 235.415C253.713 235.413 253.716 235.412 253.72 235.41C253.723 235.408 253.727 235.406 253.731 235.404C253.759 235.39 253.723 235.408 253.752 235.394C253.78 235.38 253.766 235.387 253.794 235.373C254.019 235.26 253.902 235.319 254.118 235.211C254.845 234.847 253.997 235.271 254.689 234.925C254.862 234.839 254.771 234.884 254.935 234.802C255.082 234.729 255.018 234.761 255.156 234.692C255.294 234.623 255.12 234.71 255.256 234.642C255.264 234.638 255.261 234.639 255.269 234.635C255.271 234.634 255.273 234.633 255.275 234.632C255.277 234.631 255.279 234.63 255.281 234.629C255.281 234.629 255.292 234.624 255.292 234.624C255.294 234.623 255.296 234.622 255.298 234.621C255.3 234.62 255.302 234.619 255.304 234.618C255.336 234.602 255.296 234.622 255.328 234.606C255.373 234.583 255.305 234.617 255.35 234.595C255.593 234.473 255.286 234.627 255.519 234.51C255.692 234.424 255.64 234.45 255.778 234.381C255.779 234.381 255.785 234.377 255.785 234.377C255.786 234.377 255.787 234.376 255.788 234.376C255.789 234.375 255.79 234.375 255.791 234.374C255.808 234.366 255.787 234.376 255.804 234.368C255.849 234.345 255.782 234.379 255.827 234.356C255.828 234.356 255.829 234.355 255.83 234.355C255.831 234.354 255.832 234.354 255.833 234.353C255.834 234.353 255.835 234.352 255.835 234.352C255.836 234.352 255.837 234.351 255.838 234.351C255.852 234.344 255.835 234.352 255.849 234.345C255.863 234.338 255.856 234.342 255.869 234.335C255.982 234.279 255.83 234.355 255.934 234.303C255.963 234.288 255.953 234.293 255.973 234.283C255.973 234.283 255.975 234.283 255.975 234.283C255.975 234.282 255.975 234.282 255.975 234.282C255.976 234.282 255.976 234.282 255.976 234.282C255.976 234.282 255.977 234.282 255.977 234.281C255.977 234.281 255.977 234.281 255.977 234.281C255.98 234.28 255.976 234.282 255.979 234.28C255.983 234.278 255.978 234.281 255.983 234.278C255.985 234.277 255.982 234.279 255.984 234.278C255.985 234.277 255.984 234.278 255.985 234.277C255.986 234.277 255.985 234.277 255.985 234.277C255.986 234.277 255.986 234.277 255.986 234.277C255.986 234.277 255.986 234.277 255.986 234.277C255.986 234.277 255.986 234.277 255.986 234.277C255.986 234.277 255.986 234.277 255.986 234.277C255.986 234.277 255.986 234.277 245.7 213.705ZM242.38 215.365L232.094 194.793C229.561 196.06 226.678 197.58 223.481 199.323L234.495 219.515L245.509 239.707C248.399 238.13 250.772 236.884 252.666 235.937L242.38 215.365ZM234.495 219.515L222.662 199.793C218.833 202.09 215.216 204.681 211.879 207.601L227.025 224.91L242.171 242.219C243.26 241.266 244.624 240.26 246.328 239.237L234.495 219.515ZM227.025 224.91L211.879 207.601C208.292 210.74 200.705 218.377 200.705 230.305H223.705H246.705C246.705 234.746 245.201 238.014 244.123 239.766C243.097 241.433 242.173 242.217 242.171 242.219L227.025 224.91ZM223.705 230.305L246.693 229.563L245.863 203.833L222.875 204.575L199.887 205.317L200.717 231.047L223.705 230.305ZM222.875 204.575L234.776 224.257L252.621 213.467L240.72 193.785L228.819 174.103L210.974 184.893L222.875 204.575ZM240.72 193.785L242.327 216.729L348.982 209.259L347.375 186.315L345.768 163.371L239.113 170.841L240.72 193.785ZM347.375 186.315L324.769 182.076C323.862 186.911 322.98 192.37 322.116 198.417L344.885 201.67L367.654 204.923C368.45 199.35 369.228 194.572 369.981 190.554L347.375 186.315ZM344.885 201.67L321.999 199.381C321.406 205.313 321.055 210.711 321.055 215.365H344.055H367.055C367.055 212.826 367.257 209.093 367.771 203.959L344.885 201.67ZM344.055 215.365L341.973 192.459C317.555 194.679 297.741 196.632 282.585 198.316L285.125 221.175L287.665 244.034C302.389 242.398 321.862 240.477 346.137 238.271L344.055 215.365ZM285.125 221.175L283.004 198.273C267.958 199.666 256.073 200.948 247.537 202.126L250.68 224.91L253.823 247.694C261.333 246.658 272.412 245.45 287.246 244.077L285.125 221.175ZM250.68 224.91L248.313 202.032C240 202.892 232.405 204.017 226.516 205.7L232.835 227.815L239.154 249.93C241.012 249.399 245.313 248.588 253.047 247.788L250.68 224.91ZM232.835 227.815L228.016 205.326C223.668 206.257 219.373 207.365 215.629 208.769L223.705 230.305L231.781 251.841C232.464 251.585 234.256 251.033 237.654 250.304L232.835 227.815ZM220.8 313.305L243.252 308.316C242.449 304.7 241.199 300.524 239.715 296.072L217.895 303.345L196.075 310.618C197.358 314.466 198.044 316.93 198.348 318.294L220.8 313.305ZM217.895 303.345L240.118 297.419C238.8 292.473 237.179 287.466 235.281 282.404L213.745 290.48L192.209 298.556C193.631 302.347 194.777 305.917 195.672 309.271L217.895 303.345ZM213.745 290.48L235.281 282.404C233.688 278.158 232.407 274.563 231.415 271.587L209.595 278.86L187.775 286.133C188.997 289.797 190.482 293.949 192.209 298.556L213.745 290.48ZM209.595 278.86L212.848 301.629C221.739 300.359 230.318 297.292 238.494 293.026L227.855 272.635L217.216 252.244C212.665 254.618 209.071 255.701 206.342 256.091L209.595 278.86ZM227.855 272.635L239.172 292.658C246.247 288.659 254.267 283.595 263.164 277.567L250.265 258.525L237.366 239.483C229.11 245.075 222.19 249.417 216.538 252.612L227.855 272.635ZM250.265 258.525L262.76 277.835C268.153 274.345 275.446 269.115 284.4 262.4L270.6 244L256.8 225.6C248.047 232.165 241.784 236.618 237.77 239.215L250.265 258.525ZM270.6 244L284.128 262.601C293.749 255.603 304.379 247.264 315.992 237.634L301.31 219.93L286.628 202.226C275.554 211.409 265.711 219.117 257.072 225.399L270.6 244ZM301.31 219.93L315.782 237.807C327.845 228.041 340.001 217.455 352.25 206.06L336.585 189.22L320.92 172.38C309.376 183.118 298.015 193.005 286.838 202.053L301.31 219.93ZM336.585 189.22L352.25 206.06C364.548 194.621 376.288 182.881 387.469 170.84L370.615 155.19L353.761 139.54C343.362 150.739 332.416 161.686 320.92 172.38L336.585 189.22ZM370.615 155.19L356.44 173.303L385.075 195.713L399.25 177.6L413.425 159.487L384.79 137.077L370.615 155.19ZM399.25 177.6L383.083 161.241C360.246 183.809 335.918 205.047 310.093 224.954L324.135 243.17L338.177 261.386C365.472 240.346 391.221 217.871 415.417 193.959L399.25 177.6ZM324.135 243.17L310.213 224.862C284.345 244.533 258.721 261.694 233.346 276.385L244.87 296.29L256.394 316.195C283.586 300.452 310.805 282.2 338.057 261.478L324.135 243.17ZM244.87 296.29H221.87V297.12H244.87H267.87V296.29H244.87ZM244.87 297.12C235.529 276.102 235.529 276.102 235.529 276.102C235.529 276.102 235.529 276.102 235.529 276.102C235.529 276.102 235.529 276.102 235.529 276.102C235.528 276.103 235.529 276.102 235.528 276.103C235.527 276.103 235.527 276.103 235.525 276.104C235.522 276.105 235.52 276.106 235.514 276.109C235.46 276.133 235.534 276.1 235.47 276.128C235.276 276.215 235.529 276.102 235.295 276.206C234.684 276.478 235.362 276.176 234.595 276.517C233.851 276.848 234.852 276.403 234.07 276.751C233.422 277.039 234.421 276.595 233.763 276.887C233.699 276.916 233.666 276.93 233.599 276.96C233.216 277.13 233.814 276.864 233.428 277.036C231.427 277.925 233.95 276.804 231.794 277.762L241.135 298.78L250.476 319.798C250.613 319.737 251.254 319.452 251.352 319.409C251.409 319.383 251.698 319.255 251.746 319.234C251.784 319.216 251.896 319.167 251.932 319.151C251.944 319.145 252.01 319.116 252.022 319.111C252.026 319.109 252.04 319.103 252.044 319.101C252.095 319.078 252.016 319.113 252.066 319.091C252.07 319.089 252.074 319.088 252.077 319.086C252.081 319.084 252.085 319.083 252.088 319.081C252.092 319.08 252.096 319.078 252.099 319.076C252.103 319.075 252.107 319.073 252.11 319.071C252.364 318.958 252.201 319.031 252.446 318.922C252.484 318.905 252.448 318.921 252.486 318.905C252.493 318.901 252.518 318.89 252.525 318.887C252.585 318.86 252.544 318.879 252.603 318.853C252.628 318.841 252.596 318.855 252.622 318.844C252.625 318.843 252.628 318.841 252.631 318.84C252.634 318.838 252.638 318.837 252.641 318.836C252.644 318.834 252.647 318.833 252.65 318.831C252.653 318.83 252.656 318.829 252.66 318.827C252.685 318.816 252.653 318.83 252.678 318.819C252.683 318.817 252.692 318.813 252.697 318.811C252.75 318.787 252.662 318.826 252.716 318.802C252.747 318.788 252.703 318.808 252.734 318.794C252.737 318.793 252.74 318.792 252.743 318.79C252.746 318.789 252.749 318.787 252.752 318.786C253.253 318.564 252.539 318.881 253.029 318.663C253.35 318.52 252.966 318.691 253.277 318.553C253.464 318.47 253.947 318.255 253.978 318.241C254.001 318.231 254.012 318.226 254.032 318.217C254.038 318.215 254.052 318.208 254.057 318.206C254.058 318.206 254.059 318.205 254.06 318.205C254.061 318.204 254.062 318.204 254.063 318.204C254.073 318.199 254.059 318.205 254.069 318.201C254.07 318.201 254.071 318.2 254.072 318.2C254.073 318.199 254.073 318.199 254.074 318.198C254.075 318.198 254.076 318.198 254.077 318.197C254.078 318.197 254.079 318.196 254.08 318.196C254.081 318.196 254.082 318.195 254.083 318.195C254.083 318.194 254.084 318.194 254.085 318.194C254.086 318.193 254.087 318.193 254.088 318.192C254.089 318.192 254.09 318.192 254.091 318.191C254.102 318.186 254.085 318.194 254.096 318.189C254.097 318.189 254.098 318.188 254.098 318.188C254.099 318.187 254.1 318.187 254.101 318.187C254.101 318.187 254.106 318.185 254.106 318.184C254.107 318.184 254.107 318.184 254.108 318.183C254.109 318.183 254.11 318.183 254.111 318.182C254.114 318.181 254.112 318.182 254.115 318.18C254.116 318.18 254.117 318.18 254.118 318.179C254.118 318.179 254.119 318.179 254.12 318.178C254.13 318.174 254.145 318.167 254.153 318.164C254.172 318.155 254.187 318.148 254.197 318.144C254.198 318.144 254.199 318.143 254.2 318.143C254.2 318.143 254.201 318.142 254.201 318.142C254.201 318.142 254.201 318.142 254.202 318.142C254.202 318.142 254.202 318.142 254.202 318.142C254.203 318.142 254.203 318.141 254.203 318.141C254.203 318.141 254.203 318.141 254.204 318.141C254.204 318.141 254.204 318.141 254.204 318.141C254.205 318.141 254.205 318.141 254.205 318.14C254.205 318.14 254.205 318.14 254.206 318.14C254.206 318.14 254.206 318.14 254.206 318.14C254.206 318.14 254.206 318.14 254.207 318.14C254.207 318.14 254.207 318.14 254.207 318.139C254.207 318.139 254.207 318.139 254.208 318.139C254.208 318.139 254.208 318.139 254.208 318.139C254.208 318.139 254.208 318.139 254.208 318.139C254.209 318.139 254.209 318.139 254.209 318.139C254.209 318.139 254.209 318.139 254.209 318.139C254.209 318.139 254.209 318.138 254.209 318.138C254.21 318.138 254.21 318.138 254.21 318.138C254.21 318.138 254.21 318.138 254.21 318.138C254.21 318.138 254.21 318.138 254.211 318.138C254.211 318.138 254.211 318.138 254.211 318.138C254.211 318.138 254.211 318.138 254.211 318.138C254.211 318.138 254.211 318.138 254.211 318.138C254.211 318.138 254.211 318.138 254.211 318.138C254.211 318.138 254.211 318.138 254.211 318.138C254.211 318.138 254.211 318.138 244.87 297.12ZM241.135 298.78L233.059 277.244C229.795 278.468 226.233 280.101 222.549 281.943L232.835 302.515L243.121 323.087C246.077 321.609 248.048 320.752 249.211 320.316L241.135 298.78ZM232.835 302.515L222.549 281.943C218.105 284.165 213.872 286.742 209.999 289.755L224.12 307.91L238.241 326.065C239.348 325.204 240.925 324.185 243.121 323.087L232.835 302.515ZM224.12 307.91L208.974 290.601C205.387 293.74 197.8 301.377 197.8 313.305H220.8H243.8C243.8 317.746 242.296 321.014 241.218 322.766C240.192 324.433 239.268 325.217 239.266 325.219L224.12 307.91ZM220.8 313.305L243.789 312.587L242.959 286.027L219.97 286.745L196.981 287.463L197.811 314.023L220.8 313.305ZM219.97 286.745L231.559 306.612L251.479 294.992L239.89 275.125L228.301 255.258L208.381 266.878L219.97 286.745ZM239.89 275.125L241.8 298.046L416.1 283.521L414.19 260.6L412.28 237.679L237.98 252.204L239.89 275.125ZM414.19 260.6L391.738 255.611C390.398 261.637 389.434 267.981 388.804 274.604L411.7 276.785L434.596 278.966C435.072 273.969 435.768 269.523 436.642 265.589L414.19 260.6ZM411.7 276.785L388.814 274.496C388.221 280.428 387.87 285.826 387.87 290.48H410.87H433.87C433.87 287.941 434.072 284.208 434.586 279.074L411.7 276.785ZM410.87 290.48L408.68 267.584C376.833 270.631 350.079 273.264 328.428 275.485L330.775 298.365L333.122 321.245C354.631 319.039 381.274 316.416 413.06 313.375L410.87 290.48ZM330.775 298.365L328.693 275.459C307.268 277.407 289.577 279.23 275.69 280.931L278.485 303.76L281.28 326.589C294.507 324.97 311.675 323.196 332.857 321.271L330.775 298.365ZM278.485 303.76L276.102 280.884C262.703 282.28 251.859 283.559 243.692 284.726L246.945 307.495L250.198 330.264C257.524 329.217 267.707 328.007 280.868 326.636L278.485 303.76ZM246.945 307.495L243.574 284.743C235.969 285.87 229.717 286.924 225.111 287.911L229.93 310.4L234.749 332.889C237.89 332.216 242.981 331.333 250.316 330.247L246.945 307.495ZM229.93 310.4L224.758 287.989C220.197 289.042 215.667 290.417 211.459 292.287L220.8 313.305L230.141 334.323C230.913 333.98 232.469 333.418 235.102 332.811L229.93 310.4ZM348.62 59.74L333.386 76.9717L362.021 102.287L377.255 85.055L392.489 67.8233L363.854 42.5083L348.62 59.74ZM377.255 85.055L364.322 66.0357C351.703 74.6163 336.93 82.8681 319.892 90.7319L329.53 111.615L339.168 132.498C358.097 123.762 375.14 114.307 390.188 104.074L377.255 85.055ZM329.53 111.615L320.037 90.6653C303.029 98.3721 285.173 105.437 266.461 111.853L273.92 133.61L281.379 155.367C301.4 148.503 320.618 140.905 339.023 132.565L329.53 111.615ZM273.92 133.61L266.74 111.759C247.687 118.02 228.928 123.729 210.461 128.888L216.65 151.04L222.839 173.192C241.999 167.838 261.419 161.927 281.1 155.461L273.92 133.61ZM216.65 151.04L239.139 146.221C237.808 140.01 235.387 133.687 232.456 127.499L211.67 137.345L190.884 147.191C192.933 151.517 193.832 154.324 194.161 155.859L216.65 151.04ZM211.67 137.345L232.644 127.907C229.951 121.921 227.268 116.519 224.585 111.824L204.615 123.235L184.645 134.646C186.389 137.697 188.409 141.702 190.696 146.783L211.67 137.345ZM204.615 123.235L210.842 145.376C229.16 140.224 247.585 134.224 266.117 127.381L258.15 105.805L250.183 84.2288C232.748 90.6664 215.483 96.2859 198.388 101.094L204.615 123.235ZM258.15 105.805L266.407 127.272C284.969 120.132 302.48 112.53 318.921 104.454L308.78 83.81L298.639 63.1663C283.54 70.5833 267.297 77.6443 249.893 84.338L258.15 105.805ZM308.78 83.81L318.921 104.454C335.689 96.2167 350.353 87.4248 362.643 77.9703L348.62 59.74L334.597 41.5096C325.307 48.6552 313.411 55.91 298.639 63.1663L308.78 83.81ZM297.99 286.745V309.745H335.34V286.745V263.745H297.99V286.745ZM335.34 286.745H312.34V407.095H335.34H358.34V286.745H335.34ZM335.34 407.095H312.34C312.34 414.336 311.467 417.891 310.999 419.094L332.435 427.43L353.871 435.766C357.277 427.009 358.34 417.007 358.34 407.095H335.34ZM332.435 427.43L310.999 419.094C311.141 418.729 311.341 418.34 311.597 417.965C311.851 417.593 312.105 417.316 312.301 417.133C312.69 416.771 312.664 416.95 311.691 417.347L320.4 438.635L329.109 459.923C339.592 455.634 349.138 447.936 353.871 435.766L332.435 427.43ZM320.4 438.635L310.512 417.869C307.969 419.08 303.915 420.252 297.705 420.666L299.235 443.615L300.765 466.564C311.155 465.871 321.211 463.723 330.288 459.401L320.4 438.635ZM299.235 443.615L297.705 420.666C290.069 421.175 280.648 421.445 269.355 421.445V444.445V467.445C281.302 467.445 291.801 467.162 300.765 466.564L299.235 443.615ZM269.355 444.445L292.214 441.905C291.41 434.67 289.487 427.318 286.82 419.985L265.205 427.845L243.59 435.705C245.35 440.545 246.193 444.26 246.496 446.985L269.355 444.445ZM265.205 427.845L287.122 420.871C285.067 414.411 282.972 408.414 280.831 402.909L259.395 411.245L237.959 419.581C239.691 424.036 241.47 429.106 243.288 434.819L265.205 427.845ZM259.395 411.245L258.511 434.228C265.961 434.515 273.037 434.66 279.73 434.66V411.66V388.66C273.697 388.66 267.215 388.529 260.279 388.262L259.395 411.245ZM279.73 411.66L278.731 434.638C284.838 434.904 291.019 435.036 295.448 434.482L292.595 411.66L289.742 388.838C290.086 388.795 289.608 388.867 287.719 388.867C286.025 388.867 283.721 388.812 280.729 388.682L279.73 411.66ZM292.595 411.66L295.448 434.482C297.641 434.208 300.654 433.664 303.835 432.392C306.836 431.192 312.04 428.522 315.882 422.758L296.745 410L277.608 397.242C280.897 392.308 285.133 390.33 286.751 389.683C287.721 389.294 288.488 389.091 288.928 388.99C289.382 388.885 289.671 388.847 289.742 388.838L292.595 411.66ZM296.745 410L309.503 429.137C320.842 421.578 320.99 409.086 320.99 406.265H297.99H274.99C274.99 405.823 275.008 403.931 275.859 401.378C276.757 398.683 278.972 394.206 283.987 390.863L296.745 410ZM297.99 406.265H320.99V286.745H297.99H274.99V406.265H297.99Z" fill="black" mask="url(#path-2-outside-1_18_78)"/>
</g>
<defs>
<clipPath id="clip0_18_78">
<rect width="512" height="512" rx="69" fill="white"/>
</clipPath>
</defs>
</svg>
