<svg width="512" height="512" viewBox="0 0 512 512" fill="none" xmlns="http://www.w3.org/2000/svg">
<rect width="512" height="512" fill="white"/>
<rect x="50.5" y="43.5" width="411" height="424" rx="79.5" fill="#F40909"/>
<rect x="50.5" y="43.5" width="411" height="424" rx="79.5" stroke="black"/>
<path d="M129.1 130.1H203.8V149.6H129.1V130.1ZM161.5 204.5H181.3V362.3C181.3 367.5 180.6 371.5 179.2 374.3C178 377.3 175.8 379.6 172.6 381.2C169 382.8 164.6 383.7 159.4 383.9C154.2 384.3 147.7 384.5 139.9 384.5C139.3 382.1 138.3 379.1 136.9 375.5C135.7 372.1 134.3 369.1 132.7 366.5C138.3 366.7 143.4 366.8 148 366.8C152.6 366.8 155.7 366.8 157.3 366.8C160.1 366.6 161.5 365.1 161.5 362.3V204.5ZM119.2 273.2C127.2 270.4 136.4 267.1 146.8 263.3C157.4 259.5 168.5 255.3 180.1 250.7C191.9 246.1 203.8 241.5 215.8 236.9L219.7 255.5C203.1 262.5 186.4 269.4 169.6 276.2C152.8 283 137.7 289.2 124.3 294.8L119.2 273.2ZM198.7 130.1H203.5L208 128.6L222.1 138.2C217.9 147 213.1 156.2 207.7 165.8C202.5 175.2 197 184.2 191.2 192.8C185.6 201.4 180 209.1 174.4 215.9C173 213.9 171 211.8 168.4 209.6C165.8 207.4 163.5 205.7 161.5 204.5C166.1 198.1 170.7 190.9 175.3 182.9C180.1 174.7 184.5 166.4 188.5 158C192.7 149.4 196.1 141.6 198.7 134.6V130.1ZM335.8 228.2L352 220.1C356.8 226.5 361.7 233.5 366.7 241.1C371.9 248.7 376.6 256.2 380.8 263.6C385 270.8 388.2 277.2 390.4 282.8L373 292.7C370.8 286.9 367.6 280.3 363.4 272.9C359.4 265.3 355 257.6 350.2 249.8C345.4 242 340.6 234.8 335.8 228.2ZM331.6 301.7L348.7 293.9C354.3 300.7 359.8 308.2 365.2 316.4C370.6 324.4 375.6 332.3 380.2 340.1C385 347.9 388.8 354.8 391.6 360.8L373.6 370.7C370.8 364.5 367 357.4 362.2 349.4C357.6 341.4 352.6 333.3 347.2 325.1C342 316.7 336.8 308.9 331.6 301.7ZM252.7 298.1L272.8 303.5C267 316.5 259.9 329.3 251.5 341.9C243.3 354.3 235.2 364.8 227.2 373.4C225.8 372.4 223.9 371.3 221.5 370.1C219.1 369.1 216.7 368 214.3 366.8C211.9 365.8 209.7 365 207.7 364.4C216.7 356 225.1 345.9 232.9 334.1C240.9 322.3 247.5 310.3 252.7 298.1ZM234.4 229.1C234.2 227.5 233.7 225.6 232.9 223.4C232.1 221 231.3 218.5 230.5 215.9C229.9 213.1 229.2 210.8 228.4 209C231 208.6 233.8 207.6 236.8 206C240 204.4 243.3 202.5 246.7 200.3C249.3 198.5 253.4 195.3 259 190.7C264.8 186.1 271.1 180.7 277.9 174.5C284.9 168.3 291.2 161.8 296.8 155L316.3 164.9C305.7 175.5 294.5 185.5 282.7 194.9C271.1 204.1 259.7 212 248.5 218.6V218.9C248.5 218.9 247.8 219.2 246.4 219.8C245 220.4 243.4 221.3 241.6 222.5C239.8 223.5 238.1 224.6 236.5 225.8C235.1 227 234.4 228.1 234.4 229.1ZM234.4 229.1L234.1 213.8L245.5 207.2L324.4 201.2C324 203.8 323.6 206.8 323.2 210.2C323 213.4 322.9 216.1 322.9 218.3C304.7 219.9 290.1 221.3 279.1 222.5C268.1 223.5 259.6 224.4 253.6 225.2C247.8 226 243.5 226.7 240.7 227.3C238.1 227.7 236 228.3 234.4 229.1ZM231.7 289.1C231.5 287.7 231 285.8 230.2 283.4C229.4 280.8 228.5 278.2 227.5 275.6C226.5 273 225.6 270.7 224.8 268.7C228.8 268.3 233.1 266.8 237.7 264.2C242.5 261.6 248 258.2 254.2 254C257.6 251.8 262.5 248.3 268.9 243.5C275.5 238.7 282.9 232.9 291.1 226.1C299.5 219.3 308.1 211.9 316.9 203.9C325.7 195.7 334.1 187.4 342.1 179L359.2 191.9C341.6 209.1 323.1 225.2 303.7 240.2C284.5 255 265.4 267.9 246.4 278.9V279.2C246.4 279.2 245.6 279.6 244 280.4C242.6 281 240.9 281.8 238.9 282.8C237.1 283.6 235.4 284.6 233.8 285.8C232.4 287 231.7 288.1 231.7 289.1ZM231.7 289.1L231.1 273.5L243.7 266.3L371.5 255.5C371.1 258.3 370.7 261.4 370.3 264.8C369.9 268 369.8 270.7 370 272.9C346.4 275.1 326.7 277 310.9 278.6C295.3 280.2 282.6 281.6 272.8 282.8C263 283.8 255.4 284.7 250 285.5C244.6 286.1 240.6 286.7 238 287.3C235.4 287.7 233.3 288.3 231.7 289.1ZM325.9 110L343 124.7C333.4 131.3 322.3 137.6 309.7 143.6C297.1 149.6 283.9 155.1 270.1 160.1C256.3 164.9 242.7 169.3 229.3 173.3C228.7 170.9 227.6 168.2 226 165.2C224.6 162.2 223.3 159.5 222.1 157.1C234.9 153.1 247.8 148.6 260.8 143.6C274 138.6 286.3 133.3 297.7 127.7C309.1 121.9 318.5 116 325.9 110ZM290.5 271.7H311.8V363.2C311.8 368.4 311.2 372.5 310 375.5C308.8 378.5 306.2 380.8 302.2 382.4C298.6 384 293.9 384.9 288.1 385.1C282.5 385.5 275.6 385.7 267.4 385.7C267 382.9 266.1 379.7 264.7 376.1C263.5 372.5 262.3 369.3 261.1 366.5C266.9 366.7 272.1 366.8 276.7 366.8C281.5 366.8 284.8 366.8 286.6 366.8C288.2 366.6 289.2 366.2 289.6 365.6C290.2 365 290.5 364 290.5 362.6V271.7Z" fill="#FFFEFE"/>
</svg>
