<svg width="512" height="512" viewBox="0 0 512 512" fill="none" xmlns="http://www.w3.org/2000/svg">
<rect x="23.5" y="23.5" width="465" height="465" rx="79.5" fill="#F40909"/>
<rect x="23.5" y="23.5" width="465" height="465" rx="79.5" stroke="black"/>
<g clip-path="url(#clip0_6_86)">
<path d="M90.107 95.757H187.466V121.172H90.107V95.757ZM132.335 192.725H158.141V398.391C158.141 405.168 157.229 410.382 155.404 414.031C153.84 417.941 150.973 420.939 146.802 423.024C142.11 425.109 136.375 426.282 129.598 426.543C122.821 427.064 114.349 427.325 104.183 427.325C103.401 424.197 102.098 420.287 100.273 415.595C98.709 411.164 96.8843 407.254 94.799 403.865C102.098 404.126 108.745 404.256 114.74 404.256C120.735 404.256 124.776 404.256 126.861 404.256C130.51 403.995 132.335 402.04 132.335 398.391V192.725ZM77.204 282.264C87.6307 278.615 99.6213 274.314 113.176 269.361C126.991 264.408 141.458 258.934 156.577 252.939C171.956 246.944 187.466 240.948 203.106 234.953L208.189 259.195C186.554 268.318 164.788 277.311 142.892 286.174C120.996 295.037 101.316 303.117 83.851 310.416L77.204 282.264ZM180.819 95.757H187.075L192.94 93.802L211.317 106.314C205.843 117.783 199.587 129.774 192.549 142.286C185.772 154.537 178.603 166.267 171.044 177.476C163.745 188.685 156.447 198.72 149.148 207.583C147.323 204.976 144.717 202.239 141.328 199.372C137.939 196.505 134.942 194.289 132.335 192.725C138.33 184.384 144.326 175 150.321 164.573C156.577 153.886 162.312 143.068 167.525 132.12C172.999 120.911 177.43 110.745 180.819 101.622V95.757ZM359.506 223.614L380.62 213.057C386.876 221.398 393.262 230.522 399.779 240.427C406.556 250.332 412.682 260.107 418.156 269.752C423.63 279.136 427.801 287.477 430.668 294.776L407.99 307.679C405.123 300.12 400.952 291.518 395.478 281.873C390.265 271.968 384.53 261.932 378.274 251.766C372.018 241.6 365.762 232.216 359.506 223.614ZM354.032 319.409L376.319 309.243C383.618 318.106 390.786 327.881 397.824 338.568C404.862 348.995 411.379 359.291 417.374 369.457C423.63 379.623 428.583 388.616 432.232 396.436L408.772 409.339C405.123 401.258 400.17 392.005 393.914 381.578C387.919 371.151 381.402 360.594 374.364 349.907C367.587 338.959 360.809 328.793 354.032 319.409ZM251.199 314.717L277.396 321.755C269.837 338.698 260.583 355.381 249.635 371.803C238.948 387.964 228.391 401.649 217.964 412.858C216.139 411.555 213.663 410.121 210.535 408.557C207.407 407.254 204.279 405.82 201.151 404.256C198.023 402.953 195.156 401.91 192.549 401.128C204.279 390.18 215.227 377.016 225.393 361.637C235.82 346.258 244.422 330.618 251.199 314.717ZM227.348 224.787C227.087 222.702 226.436 220.225 225.393 217.358C224.35 214.23 223.308 210.972 222.265 207.583C221.483 203.934 220.571 200.936 219.528 198.59C222.917 198.069 226.566 196.765 230.476 194.68C234.647 192.595 238.948 190.118 243.379 187.251C246.768 184.905 252.111 180.734 259.41 174.739C266.969 168.744 275.18 161.706 284.043 153.625C293.166 145.544 301.377 137.073 308.676 128.21L334.091 141.113C320.276 154.928 305.678 167.962 290.299 180.213C275.18 192.204 260.322 202.5 245.725 211.102V211.493C245.725 211.493 244.813 211.884 242.988 212.666C241.163 213.448 239.078 214.621 236.732 216.185C234.386 217.488 232.17 218.922 230.085 220.486C228.26 222.05 227.348 223.484 227.348 224.787ZM227.348 224.787L226.957 204.846L241.815 196.244L344.648 188.424C344.127 191.813 343.605 195.723 343.084 200.154C342.823 204.325 342.693 207.844 342.693 210.711C318.972 212.796 299.944 214.621 285.607 216.185C271.27 217.488 260.192 218.661 252.372 219.704C244.813 220.747 239.208 221.659 235.559 222.441C232.17 222.962 229.433 223.744 227.348 224.787ZM223.829 302.987C223.568 301.162 222.917 298.686 221.874 295.558C220.831 292.169 219.658 288.781 218.355 285.392C217.052 282.003 215.879 279.006 214.836 276.399C220.049 275.878 225.654 273.923 231.649 270.534C237.905 267.145 245.073 262.714 253.154 257.24C257.585 254.373 263.972 249.811 272.313 243.555C280.915 237.299 290.56 229.74 301.247 220.877C312.195 212.014 323.404 202.37 334.873 191.943C346.342 181.256 357.29 170.438 367.717 159.49L390.004 176.303C367.065 198.72 342.954 219.704 317.669 239.254C292.645 258.543 267.751 275.356 242.988 289.693V290.084C242.988 290.084 241.945 290.605 239.86 291.648C238.035 292.43 235.82 293.473 233.213 294.776C230.867 295.819 228.651 297.122 226.566 298.686C224.741 300.25 223.829 301.684 223.829 302.987ZM223.829 302.987L223.047 282.655L239.469 273.271L406.035 259.195C405.514 262.844 404.992 266.885 404.471 271.316C403.95 275.487 403.819 279.006 404.08 281.873C373.321 284.74 347.646 287.217 327.053 289.302C306.721 291.387 290.169 293.212 277.396 294.776C264.623 296.079 254.718 297.252 247.68 298.295C240.642 299.077 235.429 299.859 232.04 300.641C228.651 301.162 225.914 301.944 223.829 302.987ZM346.603 69.56L368.89 88.719C356.378 97.321 341.911 105.532 325.489 113.352C309.067 121.172 291.863 128.34 273.877 134.857C255.891 141.113 238.166 146.848 220.701 152.061C219.919 148.933 218.485 145.414 216.4 141.504C214.575 137.594 212.881 134.075 211.317 130.947C228 125.734 244.813 119.869 261.756 113.352C278.96 106.835 294.991 99.9277 309.849 92.629C324.707 85.0696 336.958 77.38 346.603 69.56ZM300.465 280.309H328.226V399.564C328.226 406.341 327.444 411.685 325.88 415.595C324.316 419.505 320.927 422.503 315.714 424.588C311.022 426.673 304.896 427.846 297.337 428.107C290.038 428.628 281.045 428.889 270.358 428.889C269.837 425.24 268.664 421.069 266.839 416.377C265.275 411.685 263.711 407.514 262.147 403.865C269.706 404.126 276.484 404.256 282.479 404.256C288.735 404.256 293.036 404.256 295.382 404.256C297.467 403.995 298.771 403.474 299.292 402.692C300.074 401.91 300.465 400.607 300.465 398.782V280.309Z" fill="#FFFEFE"/>
</g>
<defs>
<clipPath id="clip0_6_86">
<rect width="393" height="382" fill="white" transform="translate(59 65)"/>
</clipPath>
</defs>
</svg>
