<svg width="471" height="471" viewBox="0 0 471 471" fill="none" xmlns="http://www.w3.org/2000/svg">
<rect x="3.5" y="3.5" width="465" height="465" rx="79.5" fill="#F40909"/>
<rect x="3.5" y="3.5" width="465" height="465" rx="79.5" stroke="black"/>
<path d="M166.972 205L224.906 45.7627H244.99V72.1367H238.038L193.015 205H166.972ZM195.111 161.963L202.284 142.1H274.233L281.406 161.963H195.111ZM283.503 205L238.59 72.1367V45.7627H251.722L309.546 205H283.503ZM239.583 428.648C224.575 428.648 211.517 425.301 200.408 418.606C189.373 411.912 180.839 402.422 174.807 390.136C168.774 377.776 165.758 363.173 165.758 346.326V346.216C165.758 329.369 168.774 314.802 174.807 302.517C180.839 290.231 189.373 280.777 200.408 274.156C211.443 267.462 224.502 264.114 239.583 264.114C251.28 264.114 261.837 266.358 271.254 270.846C280.671 275.333 288.432 281.55 294.538 289.495C300.644 297.44 304.507 306.673 306.125 317.193L306.235 318.297H281.627L280.965 316.09C279.273 309.837 276.514 304.466 272.688 299.979C268.937 295.491 264.265 292.07 258.674 289.716C253.156 287.288 246.793 286.074 239.583 286.074C229.725 286.074 221.154 288.539 213.871 293.468C206.661 298.397 201.07 305.349 197.098 314.324C193.125 323.299 191.139 333.93 191.139 346.216V346.326C191.139 358.538 193.125 369.206 197.098 378.328C201.07 387.377 206.698 394.366 213.981 399.295C221.265 404.224 229.799 406.688 239.583 406.688C246.646 406.688 252.936 405.511 258.453 403.157C264.044 400.729 268.789 397.198 272.688 392.563C276.588 387.929 279.493 382.264 281.406 375.569L281.737 374.466H306.346L306.125 375.569C304.507 386.163 300.644 395.469 294.538 403.488C288.506 411.434 280.781 417.613 271.364 422.027C261.948 426.441 251.354 428.648 239.583 428.648Z" fill="#FFFEFE"/>
</svg>
