<svg xmlns="http://www.w3.org/2000/svg" width="1024" height="1331" viewBox="0 0 1000 1300"><defs><clipPath id="a"><path d="M152 416h24v24h-24zM152 464h24v24h-24zM152 488h24v24h-24zM152 536h24v24h-24zM152 560h24v24h-24zM152 584h24v24h-24zM152 608h24v24h-24zM176 416h24v24h-24zM176 488h24v24h-24zM176 560h24v24h-24zM176 584h24v24h-24zM176 608h24v24h-24zM200 416h24v24h-24zM200 440h24v24h-24zM200 560h24v24h-24zM200 584h24v24h-24zM224 344h24v24h-24zM224 368h24v24h-24zM224 392h24v24h-24zM224 440h24v24h-24zM224 488h24v24h-24zM224 512h24v24h-24zM224 560h24v24h-24zM224 584h24v24h-24zM224 608h24v24h-24zM248 464h24v24h-24zM248 488h24v24h-24zM248 512h24v24h-24zM248 536h24v24h-24zM248 560h24v24h-24zM272 344h24v24h-24zM272 392h24v24h-24zM272 416h24v24h-24zM272 464h24v24h-24zM296 344h24v24h-24zM296 392h24v24h-24zM296 440h24v24h-24zM296 488h24v24h-24zM296 536h24v24h-24zM296 584h24v24h-24zM296 632h24v24h-24zM320 344h24v24h-24zM320 368h24v24h-24zM320 488h24v24h-24zM320 512h24v24h-24zM320 536h24v24h-24zM320 584h24v24h-24zM320 608h24v24h-24zM344 176h24v24h-24zM344 200h24v24h-24zM344 296h24v24h-24zM344 392h24v24h-24zM344 440h24v24h-24zM344 560h24v24h-24zM344 584h24v24h-24zM344 608h24v24h-24zM344 632h24v24h-24zM344 680h24v24h-24zM344 704h24v24h-24zM344 752h24v24h-24zM368 152h24v24h-24zM368 176h24v24h-24zM368 248h24v24h-24zM368 320h24v24h-24zM368 368h24v24h-24zM368 392h24v24h-24zM368 416h24v24h-24zM368 440h24v24h-24zM368 464h24v24h-24zM368 512h24v24h-24zM368 536h24v24h-24zM368 560h24v24h-24zM368 584h24v24h-24zM368 680h24v24h-24zM368 704h24v24h-24zM368 752h24v24h-24zM368 800h24v24h-24zM368 824h24v24h-24zM392 176h24v24h-24zM392 224h24v24h-24zM392 296h24v24h-24zM392 440h24v24h-24zM392 512h24v24h-24zM392 536h24v24h-24zM392 560h24v24h-24zM392 584h24v24h-24zM392 608h24v24h-24zM392 656h24v24h-24zM392 704h24v24h-24zM392 728h24v24h-24zM392 824h24v24h-24zM416 152h24v24h-24zM416 176h24v24h-24zM416 248h24v24h-24zM416 272h24v24h-24zM416 320h24v24h-24zM416 344h24v24h-24zM416 416h24v24h-24zM416 464h24v24h-24zM416 536h24v24h-24zM416 584h24v24h-24zM416 608h24v24h-24zM416 680h24v24h-24zM416 704h24v24h-24zM416 752h24v24h-24zM440 176h24v24h-24zM440 200h24v24h-24zM440 224h24v24h-24zM440 272h24v24h-24zM440 296h24v24h-24zM440 320h24v24h-24zM440 344h24v24h-24zM440 368h24v24h-24zM440 392h24v24h-24zM440 416h24v24h-24zM440 464h24v24h-24zM440 512h24v24h-24zM440 584h24v24h-24zM440 608h24v24h-24zM440 656h24v24h-24zM440 680h24v24h-24zM440 752h24v24h-24zM440 800h24v24h-24zM464 152h24v24h-24zM464 176h24v24h-24zM464 248h24v24h-24zM464 272h24v24h-24zM464 416h24v24h-24zM464 440h24v24h-24zM464 488h24v24h-24zM464 512h24v24h-24zM464 560h24v24h-24zM464 608h24v24h-24zM464 632h24v24h-24zM464 680h24v24h-24zM464 752h24v24h-24zM464 824h24v24h-24zM488 200h24v24h-24zM488 224h24v24h-24zM488 248h24v24h-24zM488 296h24v24h-24zM488 344h24v24h-24zM488 368h24v24h-24zM488 392h24v24h-24zM488 416h24v24h-24zM488 440h24v24h-24zM488 488h24v24h-24zM488 536h24v24h-24zM488 608h24v24h-24zM488 752h24v24h-24zM488 776h24v24h-24zM488 824h24v24h-24zM512 152h24v24h-24zM512 176h24v24h-24zM512 224h24v24h-24zM512 272h24v24h-24zM512 320h24v24h-24zM512 368h24v24h-24zM512 440h24v24h-24zM512 488h24v24h-24zM512 512h24v24h-24zM512 536h24v24h-24zM512 560h24v24h-24zM512 680h24v24h-24zM512 752h24v24h-24zM512 800h24v24h-24zM536 200h24v24h-24zM536 224h24v24h-24zM536 296h24v24h-24zM536 320h24v24h-24zM536 368h24v24h-24zM536 440h24v24h-24zM536 512h24v24h-24zM536 560h24v24h-24zM536 608h24v24h-24zM536 680h24v24h-24zM536 704h24v24h-24zM536 728h24v24h-24zM560 176h24v24h-24zM560 272h24v24h-24zM560 392h24v24h-24zM560 416h24v24h-24zM560 464h24v24h-24zM560 560h24v24h-24zM560 608h24v24h-24zM560 632h24v24h-24zM560 704h24v24h-24zM560 776h24v24h-24zM560 824h24v24h-24zM584 152h24v24h-24zM584 176h24v24h-24zM584 248h24v24h-24zM584 272h24v24h-24zM584 296h24v24h-24zM584 344h24v24h-24zM584 368h24v24h-24zM584 416h24v24h-24zM584 440h24v24h-24zM584 512h24v24h-24zM584 608h24v24h-24zM584 632h24v24h-24zM584 728h24v24h-24zM584 776h24v24h-24zM584 824h24v24h-24zM608 200h24v24h-24zM608 224h24v24h-24zM608 272h24v24h-24zM608 368h24v24h-24zM608 416h24v24h-24zM608 464h24v24h-24zM608 488h24v24h-24zM608 608h24v24h-24zM608 632h24v24h-24zM608 656h24v24h-24zM608 680h24v24h-24zM608 728h24v24h-24zM608 752h24v24h-24zM608 824h24v24h-24zM632 152h24v24h-24zM632 176h24v24h-24zM632 224h24v24h-24zM632 272h24v24h-24zM632 296h24v24h-24zM632 344h24v24h-24zM632 368h24v24h-24zM632 392h24v24h-24zM632 416h24v24h-24zM632 440h24v24h-24zM632 464h24v24h-24zM632 512h24v24h-24zM632 536h24v24h-24zM632 608h24v24h-24zM632 632h24v24h-24zM632 656h24v24h-24zM632 680h24v24h-24zM632 704h24v24h-24zM632 728h24v24h-24zM632 800h24v24h-24zM656 344h24v24h-24zM656 368h24v24h-24zM656 416h24v24h-24zM656 440h24v24h-24zM656 464h24v24h-24zM656 488h24v24h-24zM656 512h24v24h-24zM656 608h24v24h-24zM656 632h24v24h-24zM656 728h24v24h-24zM656 752h24v24h-24zM680 368h24v24h-24zM680 416h24v24h-24zM680 464h24v24h-24zM680 512h24v24h-24zM680 560h24v24h-24zM680 584h24v24h-24zM680 632h24v24h-24zM680 680h24v24h-24zM680 728h24v24h-24zM680 752h24v24h-24zM680 776h24v24h-24zM680 824h24v24h-24zM704 416h24v24h-24zM704 464h24v24h-24zM704 512h24v24h-24zM704 536h24v24h-24zM704 584h24v24h-24zM704 608h24v24h-24zM704 632h24v24h-24zM704 728h24v24h-24zM704 752h24v24h-24zM704 800h24v24h-24zM704 824h24v24h-24zM728 464h24v24h-24zM728 536h24v24h-24zM728 560h24v24h-24zM728 584h24v24h-24zM728 608h24v24h-24zM728 632h24v24h-24zM728 656h24v24h-24zM728 680h24v24h-24zM728 704h24v24h-24zM728 728h24v24h-24zM752 416h24v24h-24zM752 464h24v24h-24zM752 488h24v24h-24zM752 536h24v24h-24zM752 560h24v24h-24zM752 584h24v24h-24zM752 608h24v24h-24zM752 632h24v24h-24zM752 704h24v24h-24zM752 728h24v24h-24zM752 800h24v24h-24zM776 344h24v24h-24zM776 440h24v24h-24zM776 536h24v24h-24zM776 560h24v24h-24zM776 584h24v24h-24zM776 656h24v24h-24zM776 728h24v24h-24zM776 776h24v24h-24zM776 800h24v24h-24zM776 824h24v24h-24zM800 344h24v24h-24zM800 392h24v24h-24zM800 416h24v24h-24zM800 440h24v24h-24zM800 488h24v24h-24zM800 512h24v24h-24zM800 536h24v24h-24zM800 584h24v24h-24zM800 656h24v24h-24zM824 392h24v24h-24zM824 416h24v24h-24zM824 488h24v24h-24zM824 536h24v24h-24zM824 632h24v24h-24zM824 656h24v24h-24zM824 704h24v24h-24zM824 728h24v24h-24zM824 824h24v24h-24z"/></clipPath><clipPath id="b"><path d="M152 152h24v24h-24zM152 176h24v24h-24zM152 200h24v24h-24zM152 224h24v24h-24zM152 248h24v24h-24zM152 272h24v24h-24zM152 296h24v24h-24zM176 152h24v24h-24zM176 296h24v24h-24zM200 152h24v24h-24zM200 296h24v24h-24zM224 152h24v24h-24zM224 296h24v24h-24zM248 152h24v24h-24zM248 296h24v24h-24zM272 152h24v24h-24zM272 296h24v24h-24zM296 152h24v24h-24zM296 176h24v24h-24zM296 200h24v24h-24zM296 224h24v24h-24zM296 248h24v24h-24zM296 272h24v24h-24zM296 296h24v24h-24z"/></clipPath><clipPath id="c"><path d="M200 200h24v24h-24zM200 224h24v24h-24zM200 248h24v24h-24zM224 200h24v24h-24zM224 224h24v24h-24zM224 248h24v24h-24zM248 200h24v24h-24zM248 224h24v24h-24zM248 248h24v24h-24z"/></clipPath><clipPath id="d"><path d="M680 152h24v24h-24zM680 176h24v24h-24zM680 200h24v24h-24zM680 224h24v24h-24zM680 248h24v24h-24zM680 272h24v24h-24zM680 296h24v24h-24zM704 152h24v24h-24zM704 296h24v24h-24zM728 152h24v24h-24zM728 296h24v24h-24zM752 152h24v24h-24zM752 296h24v24h-24zM776 152h24v24h-24zM776 296h24v24h-24zM800 152h24v24h-24zM800 296h24v24h-24zM824 152h24v24h-24zM824 176h24v24h-24zM824 200h24v24h-24zM824 224h24v24h-24zM824 248h24v24h-24zM824 272h24v24h-24zM824 296h24v24h-24z"/></clipPath><clipPath id="e"><path d="M728 200h24v24h-24zM728 224h24v24h-24zM728 248h24v24h-24zM752 200h24v24h-24zM752 224h24v24h-24zM752 248h24v24h-24zM776 200h24v24h-24zM776 224h24v24h-24zM776 248h24v24h-24z"/></clipPath><clipPath id="f"><path d="M152 680h24v24h-24zM152 704h24v24h-24zM152 728h24v24h-24zM152 752h24v24h-24zM152 776h24v24h-24zM152 800h24v24h-24zM152 824h24v24h-24zM176 680h24v24h-24zM176 824h24v24h-24zM200 680h24v24h-24zM200 824h24v24h-24zM224 680h24v24h-24zM224 824h24v24h-24zM248 680h24v24h-24zM248 824h24v24h-24zM272 680h24v24h-24zM272 824h24v24h-24zM296 680h24v24h-24zM296 704h24v24h-24zM296 728h24v24h-24zM296 752h24v24h-24zM296 776h24v24h-24zM296 800h24v24h-24zM296 824h24v24h-24z"/></clipPath><clipPath id="g"><path d="M200 728h24v24h-24zM200 752h24v24h-24zM200 776h24v24h-24zM224 728h24v24h-24zM224 752h24v24h-24zM224 776h24v24h-24zM248 728h24v24h-24zM248 752h24v24h-24zM248 776h24v24h-24z"/></clipPath></defs><path d="M960 0H40A40 40 0 0 0 0 40v1220a40 40 0 0 0 40 40h920a40 40 0 0 0 40-40V40a40 40 0 0 0-40-40m0 1260H40V40h920Z"/><text x="50%" y="1080" dominant-baseline="middle" font-family="sans-serif" font-size="84" font-weight="600" text-anchor="middle">asiahcrutchfield.com</text><path fill="#fff" d="M112 112h776v776H112z"/><path d="M152 152h696v696H152z" clip-path="url('#a')"/><path d="M152 152h168v168H152z" clip-path="url('#b')"/><path d="M200 200h72v72h-72z" clip-path="url('#c')"/><path d="M680 152h168v168H680z" clip-path="url('#d')"/><path d="M728 200h72v72h-72z" clip-path="url('#e')"/><path d="M152 680h168v168H152z" clip-path="url('#f')"/><path d="M200 728h72v72h-72z" clip-path="url('#g')"/></svg>