<svg width="512" height="512" viewBox="0 0 512 512" fill="none" xmlns="http://www.w3.org/2000/svg">
<g clip-path="url(#clip0_18_78)">
<rect width="512" height="512" rx="69" fill="#CD0000"/>
<path d="M63.288 70.82H169.368V115.02H63.288V70.82ZM106.162 187.508H151.246V409.834C151.246 419.853 150.067 427.809 147.71 433.702C145.647 439.595 141.375 444.31 134.892 447.846C128.409 451.087 120.895 453.15 112.35 454.034C103.805 455.213 93.4913 455.802 81.41 455.802C80.526 449.909 78.6107 442.984 75.664 435.028C72.7173 427.072 69.7707 420.442 66.824 415.138C73.6013 415.433 80.2313 415.58 86.714 415.58C93.1967 415.58 97.6167 415.58 99.974 415.58C104.099 415.285 106.162 413.223 106.162 409.392V187.508ZM46.934 275.024C59.31 270.899 73.6013 266.037 89.808 260.438C106.015 254.545 123.253 248.062 141.522 240.99C159.791 233.918 178.061 226.846 196.33 219.774L206.054 262.648C180.418 273.551 154.635 284.453 128.704 295.356C103.068 306.259 79.3473 316.277 57.542 325.412L46.934 275.024ZM159.644 70.82H171.136L180.86 68.168L212.684 90.71C205.612 104.265 197.656 118.703 188.816 134.026C180.271 149.054 171.431 163.64 162.296 177.784C153.161 191.633 144.027 203.862 134.892 214.47C131.651 210.345 127.083 205.63 121.19 200.326C115.297 195.022 110.287 190.749 106.162 187.508C112.939 178.079 119.717 167.029 126.494 154.358C133.566 141.687 140.049 128.869 145.942 115.904C151.835 102.644 156.403 91.152 159.644 81.428V70.82ZM366.942 225.078L404.07 206.514C410.553 216.533 417.33 227.435 424.402 239.222C431.474 251.009 438.104 262.501 444.292 273.698C450.775 284.895 455.931 294.767 459.762 303.312L419.54 325.412C416.299 316.867 411.731 306.848 405.838 295.356C399.945 283.569 393.462 271.635 386.39 259.554C379.613 247.178 373.13 235.686 366.942 225.078ZM359.87 339.556L400.092 320.55C407.753 330.863 415.415 341.766 423.076 353.258C430.737 364.75 437.809 376.095 444.292 387.292C451.069 398.195 456.521 408.066 460.646 416.906L418.656 439.448C414.531 430.608 409.227 420.442 402.744 408.95C396.261 397.163 389.189 385.229 381.528 373.148C374.161 361.067 366.942 349.869 359.87 339.556ZM241.414 327.622L287.824 340.44C279.573 359.299 269.555 378.01 257.768 396.574C246.276 414.843 235.079 430.313 224.176 442.984C220.64 440.332 216.22 437.533 210.916 434.586C205.612 431.934 200.161 429.429 194.562 427.072C189.258 424.715 184.396 422.652 179.976 420.884C192.057 409.392 203.549 395.248 214.452 378.452C225.355 361.656 234.342 344.713 241.414 327.622ZM222.85 234.802C221.966 231.561 220.64 227.288 218.872 221.984C217.399 216.68 215.631 211.229 213.568 205.63C211.8 199.737 210.179 194.875 208.706 191.044C213.126 189.865 217.546 188.097 221.966 185.74C226.681 183.383 231.69 180.289 236.994 176.458C241.119 173.806 247.307 169.239 255.558 162.756C263.809 156.273 272.796 148.465 282.52 139.33C292.244 130.195 301.231 120.619 309.482 110.6L353.24 132.258C338.212 147.875 321.563 162.756 303.294 176.9C285.319 190.749 267.787 202.536 250.696 212.26V213.586C250.696 213.586 249.223 214.323 246.276 215.796C243.624 216.975 240.383 218.743 236.552 221.1C233.016 223.163 229.775 225.52 226.828 228.172C224.176 230.529 222.85 232.739 222.85 234.802ZM222.85 234.802L221.966 201.21L243.182 187.508L353.24 179.994C352.061 185.887 351.03 192.517 350.146 199.884C349.262 207.251 348.673 213.439 348.378 218.448C323.921 220.511 303.883 222.426 288.266 224.194C272.943 225.667 261.009 226.993 252.464 228.172C243.919 229.351 237.436 230.529 233.016 231.708C228.596 232.592 225.207 233.623 222.85 234.802ZM221.082 322.318C220.493 319.077 219.314 314.804 217.546 309.5C215.778 303.901 213.863 298.303 211.8 292.704C210.032 286.811 208.264 281.801 206.496 277.676C213.273 276.497 220.051 274.14 226.828 270.604C233.605 266.773 241.561 261.764 250.696 255.576C255.705 252.629 262.925 247.62 272.354 240.548C282.078 233.181 292.833 224.636 304.62 214.912C316.701 205.188 328.93 194.433 341.306 182.646C353.977 170.565 365.763 158.336 376.666 145.96L414.236 176.458C390.073 200.621 363.848 223.457 335.56 244.968C307.567 266.184 279.573 284.601 251.58 300.218V301.544C251.58 301.544 250.107 302.281 247.16 303.754C244.213 304.933 240.677 306.553 236.552 308.616C232.427 310.679 228.743 313.036 225.502 315.688C222.555 318.045 221.082 320.255 221.082 322.318ZM221.082 322.318L219.756 287.842L244.95 272.814L426.612 258.67C425.433 264.858 424.402 271.783 423.518 279.444C422.634 286.811 422.045 292.999 421.75 298.008C389.042 301.249 361.491 303.901 339.096 305.964C316.996 308.027 298.874 309.942 284.73 311.71C270.586 313.183 259.389 314.509 251.138 315.688C242.887 316.867 236.552 318.045 232.132 319.224C227.712 320.108 224.029 321.139 221.082 322.318ZM353.24 44.3L391.252 78.776C375.635 89.0893 358.102 98.5187 338.654 107.064C319.206 115.315 298.874 122.829 277.658 129.606C256.737 136.383 236.11 142.277 215.778 147.286C214.599 141.982 212.389 135.794 209.148 128.722C205.907 121.355 202.813 115.167 199.866 110.158C218.725 105.149 237.731 99.2553 256.884 92.478C276.037 85.7006 294.012 78.1866 310.808 69.936C327.604 61.6853 341.748 53.14 353.24 44.3ZM297.99 290.494H347.936V411.16C347.936 422.063 346.757 430.608 344.4 436.796C342.337 442.984 337.475 447.846 329.814 451.382C322.742 454.918 314.491 456.981 305.062 457.57C295.633 458.454 284.73 458.896 272.354 458.896C271.47 452.119 269.702 444.605 267.05 436.354C264.693 428.398 262.041 421.179 259.094 414.696C265.871 414.991 272.501 415.285 278.984 415.58C285.467 415.58 289.739 415.58 291.802 415.58C294.159 415.285 295.78 414.843 296.664 414.254C297.548 413.37 297.99 411.897 297.99 409.834V290.494Z" fill="#FFD700"/>
</g>
<defs>
<clipPath id="clip0_18_78">
<rect width="512" height="512" rx="69" fill="white"/>
</clipPath>
</defs>
</svg>
