<svg width="512" height="512" viewBox="0 0 512 512" fill="none" xmlns="http://www.w3.org/2000/svg">
<rect width="512" height="512" rx="69" fill="#FE0B0B"/>
<mask id="path-2-outside-1_18_76" maskUnits="userSpaceOnUse" x="41" y="110" width="429" height="326" fill="black">
<rect fill="white" x="41" y="110" width="429" height="326"/>
<path d="M62.7725 414.2V131.417H143.207V160.752H100.466V385.023H143.207V414.2H62.7725ZM151.25 359L232.631 131.417H266.855V171.95H255.027L193.833 359H151.25ZM192.414 300.172L203.296 268.787H307.546L318.428 300.172H192.414ZM317.009 359L255.815 171.95V131.417H278.369L359.592 359H317.009ZM448.07 414.2H367.635V385.023H410.376V160.752H367.635V131.417H448.07V414.2Z"/>
</mask>
<path d="M62.7725 414.2V131.417H143.207V160.752H100.466V385.023H143.207V414.2H62.7725ZM151.25 359L232.631 131.417H266.855V171.95H255.027L193.833 359H151.25ZM192.414 300.172L203.296 268.787H307.546L318.428 300.172H192.414ZM317.009 359L255.815 171.95V131.417H278.369L359.592 359H317.009ZM448.07 414.2H367.635V385.023H410.376V160.752H367.635V131.417H448.07V414.2Z" fill="#FFD700"/>
<path d="M62.7725 414.2H41.7725V435.2H62.7725V414.2ZM62.7725 131.417V110.417H41.7725V131.417H62.7725ZM143.207 131.417H164.207V110.417H143.207V131.417ZM143.207 160.752V181.752H164.207V160.752H143.207ZM100.466 160.752V139.752H79.4663V160.752H100.466ZM100.466 385.023H79.4663V406.023H100.466V385.023ZM143.207 385.023H164.207V364.023H143.207V385.023ZM143.207 414.2V435.2H164.207V414.2H143.207ZM62.7725 414.2H83.7725V131.417H62.7725H41.7725V414.2H62.7725ZM62.7725 131.417V152.417H143.207V131.417V110.417H62.7725V131.417ZM143.207 131.417H122.207V160.752H143.207H164.207V131.417H143.207ZM143.207 160.752V139.752H100.466V160.752V181.752H143.207V160.752ZM100.466 160.752H79.4663V385.023H100.466H121.466V160.752H100.466ZM100.466 385.023V406.023H143.207V385.023V364.023H100.466V385.023ZM143.207 385.023H122.207V414.2H143.207H164.207V385.023H143.207ZM143.207 414.2V393.2H62.7725V414.2V435.2H143.207V414.2ZM151.25 359L131.477 351.929L121.439 380H151.25V359ZM232.631 131.417V110.417H217.838L212.858 124.347L232.631 131.417ZM266.855 131.417H287.855V110.417H266.855V131.417ZM266.855 171.95V192.95H287.855V171.95H266.855ZM255.027 171.95V150.95H239.802L235.068 165.421L255.027 171.95ZM193.833 359V380H209.059L213.793 365.53L193.833 359ZM192.414 300.172L172.573 293.293L162.906 321.172H192.414V300.172ZM203.296 268.787V247.787H188.351L183.455 261.908L203.296 268.787ZM307.546 268.787L327.387 261.908L322.491 247.787H307.546V268.787ZM318.428 300.172V321.172H347.936L338.269 293.293L318.428 300.172ZM317.009 359L297.05 365.53L301.784 380H317.009V359ZM255.815 171.95H234.815V175.298L235.856 178.48L255.815 171.95ZM255.815 131.417V110.417H234.815V131.417H255.815ZM278.369 131.417L298.147 124.359L293.171 110.417H278.369V131.417ZM359.592 359V380H389.384L379.37 351.941L359.592 359ZM151.25 359L171.024 366.071L252.405 138.488L232.631 131.417L212.858 124.347L131.477 351.929L151.25 359ZM232.631 131.417V152.417H266.855V131.417V110.417H232.631V131.417ZM266.855 131.417H245.855V171.95H266.855H287.855V131.417H266.855ZM266.855 171.95V150.95H255.027V171.95V192.95H266.855V171.95ZM255.027 171.95L235.068 165.421L173.874 352.47L193.833 359L213.793 365.53L274.986 178.48L255.027 171.95ZM193.833 359V338H151.25V359V380H193.833V359ZM192.414 300.172L212.255 307.052L223.138 275.667L203.296 268.787L183.455 261.908L172.573 293.293L192.414 300.172ZM203.296 268.787V289.787H307.546V268.787V247.787H203.296V268.787ZM307.546 268.787L287.705 275.667L298.587 307.052L318.428 300.172L338.269 293.293L327.387 261.908L307.546 268.787ZM318.428 300.172V279.172H192.414V300.172V321.172H318.428V300.172ZM317.009 359L336.968 352.47L275.774 165.421L255.815 171.95L235.856 178.48L297.05 365.53L317.009 359ZM255.815 171.95H276.815V131.417H255.815H234.815V171.95H255.815ZM255.815 131.417V152.417H278.369V131.417V110.417H255.815V131.417ZM278.369 131.417L258.591 138.476L339.814 366.059L359.592 359L379.37 351.941L298.147 124.359L278.369 131.417ZM359.592 359V338H317.009V359V380H359.592V359ZM448.07 414.2V435.2H469.07V414.2H448.07ZM367.635 414.2H346.635V435.2H367.635V414.2ZM367.635 385.023V364.023H346.635V385.023H367.635ZM410.376 385.023V406.023H431.376V385.023H410.376ZM410.376 160.752H431.376V139.752H410.376V160.752ZM367.635 160.752H346.635V181.752H367.635V160.752ZM367.635 131.417V110.417H346.635V131.417H367.635ZM448.07 131.417H469.07V110.417H448.07V131.417ZM448.07 414.2V393.2H367.635V414.2V435.2H448.07V414.2ZM367.635 414.2H388.635V385.023H367.635H346.635V414.2H367.635ZM367.635 385.023V406.023H410.376V385.023V364.023H367.635V385.023ZM410.376 385.023H431.376V160.752H410.376H389.376V385.023H410.376ZM410.376 160.752V139.752H367.635V160.752V181.752H410.376V160.752ZM367.635 160.752H388.635V131.417H367.635H346.635V160.752H367.635ZM367.635 131.417V152.417H448.07V131.417V110.417H367.635V131.417ZM448.07 131.417H427.07V414.2H448.07H469.07V131.417H448.07Z" fill="black" mask="url(#path-2-outside-1_18_76)"/>
</svg>
